<svg xmlns="http://www.w3.org/2000/svg" xmlns:xlink="http://www.w3.org/1999/xlink" width="320pt" height="232" viewBox="0 0 320 174"><defs><path id="G" d="M.31 0h3.5l.14-.72H1.27L2.4-6.69h-.83Zm0 0"/><path id="I" d="M.31 0h.82l.48-2.55.8-.73L3.88 0h.89L3.05-3.81l2.8-2.88H4.84l-2.35 2.5-.67.75h-.03l.61-3.25h-.81Zm0 0"/><path id="ao" d="m2.17 0 1.86-3.97c.28-.6.47-1.12.69-1.75h.03c-.06.77-.06 1.14-.03 1.92L4.89 0h.88l3.1-6.69H8L6.2-2.67c-.26.6-.45 1.14-.65 1.72h-.02c.02-.44.02-1.02-.01-1.9l-.14-3.84H4.5L2.64-2.62c-.37.8-.53 1.25-.69 1.68h-.01v-1.73L1.78-6.7H.97L1.3 0Zm0 0"/><path id="aq" d="M.78 1.97c0-.4.14-1.24.25-1.8l.14-.78h.03c.22.45.77.72 1.35.72C3.88.1 5.05-1.3 5.05-3c0-1.06-.67-1.9-1.77-1.9-.69 0-1.2.21-1.64.65-.45.4-.8 1.02-1.03 2.27L.2.2A8 8 0 0 0 0 1.97Zm.7-4.22c.27-1.4.93-1.98 1.63-1.98.73 0 1.1.6 1.1 1.28 0 1.36-.82 2.4-1.7 2.4-.73 0-1.1-.6-1.1-1.04l.01-.38Zm0 0"/><path id="ar" d="M1.47 0h.83l1.12-5.97H5.4l.14-.72H.78l-.14.72H2.6Zm0 0"/><path id="as" d="m.67 1.97.4-2.08c.2.11.54.22 1.04.22 1.6 0 2.81-1.6 2.81-3.28 0-.9-.44-1.74-1.47-1.74-.67 0-1.3.38-1.73 1H1.7l.13-.9h-.75C1.02-4.33.92-3.67.8-3.1l-.97 5.06Zm.78-4.11c.25-1.36 1.05-2.1 1.7-2.1.7 0 .91.62.91 1.13 0 1.25-.87 2.58-1.93 2.58q-.6-.02-.93-.27Zm0 0"/><path id="at" d="M.33-.05c.31.07.8.1 1.37.1.9 0 1.64-.14 2.17-.55.44-.33.8-.86.8-1.55 0-.8-.5-1.3-1.1-1.5v-.01c.76-.2 1.45-.83 1.45-1.67q0-.66-.49-1.05-.5-.46-1.53-.45-.83.01-1.44.14Zm1.94-5.97q.23-.06.68-.06c.74 0 1.22.28 1.22.92 0 .82-.73 1.32-1.7 1.32h-.61Zm-.55 2.8h.69c.73 0 1.4.35 1.4 1.13 0 1.07-.92 1.48-1.89 1.48a5 5 0 0 1-.67-.05Zm0 0"/><path id="av" d="M2.63-.58q-.1.03-.2.02C2.18-.56 2-.67 2-1.03q0-.16.05-.42l.5-2.7H4l.17-.65h-2.6c-.79 0-1.13.13-1.32.25v.49c.22-.05.48-.08 1-.08h.47l-.49 2.6c-.03.24-.07.5-.07.67q.01.97.92.98c.15 0 .33-.03.42-.06Zm0 0"/><path id="aw" d="M1.58-6.69.3 0h.82l.59-3.14H4.8L4.2 0h.83L6.3-6.69h-.82l-.54 2.82H1.86L2.4-6.7Zm0 0"/><path id="H" d="M1.7.66 3-.64v-.67L1.94-.25v-4.12h-.47v4.12L.39-1.31v.67Zm0 0"/><path id="J" d="M1.7-4.47.4-3.17v.67l1.07-1.08V.56h.47v-4.14L3-2.5v-.67Zm0 0"/><path id="au" d="M2.03 1.16 3.66-.47v-.67l-.74.72v-4.45h-.47V.05l-.42.42L1.6.06v-4.93h-.48v4.45L.4-1.14v.67Zm0 0"/><path id="K" d="M.6-5.47V0h.73v-5.47Zm0 0"/><path id="L" d="M.6 0h.71v-2.37q0-.18.05-.33c.12-.4.48-.74.95-.74.67 0 .9.55.9 1.17V0h.73v-2.34c0-1.35-.85-1.68-1.4-1.68-.65 0-1.1.36-1.29.74h-.02l-.04-.64H.56c.02.33.03.64.03 1.06Zm0 0"/><path id="M" d="M.6 1.6h.71V-.52h.02c.23.39.67.62 1.2.62.92 0 1.78-.7 1.78-2.1 0-1.2-.72-2-1.67-2-.62 0-1.1.28-1.39.76h-.02l-.03-.67H.56q.03.54.03 1.28Zm.71-3.88q0-.15.03-.28c.14-.55.61-.9 1.1-.9.75 0 1.15.7 1.15 1.48 0 .89-.43 1.51-1.18 1.51-.52 0-.96-.34-1.07-.84q-.04-.13-.03-.28Zm0 0"/><path id="N" d="M3.88-3.92h-.72v2.39a1 1 0 0 1-1 1.03c-.64 0-.88-.52-.88-1.27v-2.15H.56v2.3c0 1.35.75 1.7 1.36 1.7.7 0 1.13-.42 1.3-.73h.01l.05.64h.63q-.04-.46-.04-1.08Zm0 0"/><path id="O" d="M.75-4.64v.72h-.6v.54h.6v2.13q-.01.7.28 1.03.27.3.77.3.42-.01.64-.1L2.4-.56c-.11.03-.22.04-.43.04-.39 0-.53-.26-.53-.75v-2.1h1.02v-.55H1.45v-.94Zm0 0"/><path id="P" d="M.9-2.77c.3 0 .5-.23.5-.51 0-.3-.2-.5-.5-.5-.28 0-.46.2-.46.5 0 .28.19.51.47.51M.9.1c.3 0 .5-.21.5-.5S1.2-.92.9-.92c-.28 0-.46.2-.46.51 0 .28.19.5.47.5m0 0"/><path id="Q" d="M.14-3.92 1.33 0h.65l.63-1.86q.22-.62.36-1.31h.01c.1.47.2.86.35 1.3L3.93 0h.65l1.26-3.92h-.7l-.56 1.97q-.2.69-.3 1.26h-.03q-.12-.58-.34-1.28L3.3-3.92h-.6l-.64 1.98c-.12.44-.26.86-.34 1.25h-.03q-.12-.6-.28-1.25L.88-3.92Zm0 0"/><path id="R" d="M1.31 0v-3.92H.6V0ZM.94-4.6c.28 0 .45-.2.45-.43a.43.43 0 0 0-.44-.44.43.43 0 0 0-.45.44c0 .23.17.44.44.44m0 0"/><path id="S" d="M3.27-5.75v2.33h-.02c-.17-.31-.58-.6-1.19-.6-.93 0-1.76.8-1.75 2.11 0 1.2.74 2 1.69 2 .64 0 1.1-.34 1.33-.78h.01l.04.69h.64c-.04-.27-.04-.67-.04-1.02v-4.73Zm0 4.1q.01.17-.04.3c-.12.54-.56.87-1.04.87-.77 0-1.16-.66-1.16-1.47 0-.86.44-1.5 1.17-1.5a1.06 1.06 0 0 1 1.07 1.12Zm0 0"/><path id="T" d="M.1-3.92 1.6 0h.68l1.53-3.92h-.73L2.3-1.73q-.2.55-.33 1.01h-.03q-.11-.46-.3-1.01l-.77-2.2Zm0 0"/><path id="U" d="M3.75-1.83q.03-.12.02-.34c0-.72-.33-1.85-1.61-1.85C1.02-4.02.3-3.08.3-1.89.31-.72 1.03.08 2.23.08c.63 0 1.07-.14 1.32-.25L3.42-.7c-.26.13-.58.2-1.1.2-.7 0-1.3-.38-1.32-1.34ZM1-2.34c.06-.5.38-1.16 1.1-1.16.8 0 1 .7.98 1.16Zm0 0"/><path id="V" d="M.6 0h.71v-5.75H.6Zm0 0"/><path id="W" d="M2.2.1C3.12.1 4.14-.56 4.14-2c0-1.19-.76-2.02-1.89-2.02-1.08 0-1.94.77-1.94 2.08C.31-.69 1.14.1 2.2.1m.02-.55c-.69 0-1.19-.64-1.19-1.5 0-.75.38-1.53 1.2-1.53.85 0 1.18.84 1.18 1.5 0 .89-.5 1.53-1.2 1.53m0 0"/><path id="X" d="M3.27-.69c-.2.1-.47.19-.88.19-.78 0-1.36-.55-1.36-1.47 0-.8.49-1.48 1.4-1.48.38 0 .65.1.82.18l.16-.53c-.2-.1-.57-.22-.99-.22a2 2 0 0 0-2.1 2.1c0 1.2.76 2 1.95 2 .53 0 .93-.14 1.12-.22Zm0 0"/><path id="Z" d="M3.36-2.4c0-.79-.3-1.62-1.5-1.62-.5 0-.97.14-1.3.35l.16.48c.28-.19.66-.3 1.03-.3.8-.01.9.58.9.91v.08C1.12-2.5.27-1.98.27-1.03c0 .56.4 1.12 1.2 1.12.57 0 .99-.28 1.2-.59h.02l.07.5h.64q-.05-.42-.05-.94Zm-.7 1.07q.01.12-.04.24a1 1 0 0 1-.96.65C1.3-.44 1-.66 1-1.12c0-.75.88-.9 1.66-.88Zm0 0"/><path id="aa" d="M.6 0h.71v-2.1q0-.18.02-.34c.1-.51.45-.9.95-.9l.25.01V-4l-.2-.02c-.47 0-.9.33-1.1.86h-.01l-.03-.76H.56Q.6-3.38.6-2.7Zm0 0"/><path id="ab" d="M.6 0h.7v-2.37q0-.18.04-.35c.11-.36.46-.72.9-.72.53 0 .8.46.8 1.08V0h.71v-2.44c0-.1.02-.25.05-.36.14-.33.43-.64.86-.64.56 0 .84.46.84 1.22V0h.7v-2.31c0-1.36-.76-1.7-1.3-1.7-.37 0-.62.09-.85.28q-.25.17-.46.5h-.01a1.15 1.15 0 0 0-1.1-.79c-.65 0-1.03.35-1.25.72h-.01l-.03-.62H.56c.02.33.03.64.03 1.06Zm0 0"/><path id="ac" d="M.33-.19c.26.16.67.27 1.1.27.91 0 1.46-.49 1.46-1.19 0-.58-.36-.92-1.03-1.17-.52-.2-.74-.35-.74-.67 0-.3.22-.53.65-.53.36 0 .65.14.8.21l.16-.5c-.2-.14-.54-.25-.95-.25-.83 0-1.34.52-1.34 1.16q-.01.69 1.03 1.11c.53.19.73.38.73.72s-.25.58-.76.58A2 2 0 0 1 .5-.73Zm0 0"/><path id="ad" d="M3.95-2.86q0-.69.03-1.06h-.64l-.01.6H3.3a1.3 1.3 0 0 0-1.23-.7c-.9 0-1.77.75-1.77 2.08C.31-.84 1-.02 1.98-.02c.61 0 1.04-.3 1.25-.65h.02v.42c0 1-.55 1.4-1.27 1.4-.5 0-.89-.17-1.15-.34l-.17.56c.3.2.82.32 1.3.32.5 0 1.04-.11 1.43-.47.38-.34.56-.9.56-1.8Zm-.72 1.19a1 1 0 0 1-.06.37 1 1 0 0 1-.98.74c-.77 0-1.16-.64-1.16-1.4 0-.93.49-1.5 1.17-1.5.52 0 .86.34.99.76q.05.15.04.3Zm0 0"/><path id="ag" d="M.9.1c.29 0 .5-.22.5-.52S1.18-.94.9-.94s-.48.22-.48.52.19.51.48.51Zm0 0"/><path id="ah" d="M1.58-5.62a5.4 5.4 0 0 0-1.06 3.3A5.3 5.3 0 0 0 1.58.98h.54c-.56-.8-1-1.84-1-3.28 0-1.48.43-2.53 1-3.32Zm0 0"/><path id="ai" d="M.72.98a5.5 5.5 0 0 0 1.06-3.3c0-1.6-.56-2.65-1.06-3.3H.16a5.4 5.4 0 0 1 1.01 3.3A5.5 5.5 0 0 1 .16.97Zm0 0"/><path id="aj" d="M.6 0h.71v-2.37q-.01-.2.05-.33a1 1 0 0 1 .95-.72c.67 0 .9.53.9 1.15V0h.73v-2.33c0-1.36-.85-1.69-1.38-1.69q-.4.01-.73.2-.34.19-.5.5H1.3v-2.43H.6Zm0 0"/><path id="ak" d="M2.75.1c1.4 0 2.53-1.02 2.53-2.9 0-1.6-.95-2.76-2.45-2.76C1.36-5.56.3-4.42.3-2.7.3-1.03 1.3.1 2.75.1m.03-.58c-1.1 0-1.75-1.07-1.75-2.22 0-1.2.6-2.28 1.77-2.28s1.75 1.14 1.75 2.23c0 1.23-.64 2.27-1.75 2.27Zm0 0"/><path id="al" d="M1.38 0v-3.37h.9v-.55h-.92v-.2c0-.63.25-1.18 1-1.18q.42.01.58.11V0h.72v-5.6q-.46-.23-1.2-.24-.8 0-1.24.39c-.38.3-.56.8-.56 1.36v.17H.1v.54h.55V0Zm0 0"/><path id="an" d="M.6-1.02C.6-.67.57-.27.55 0h.61l.05-.66h.01c.3.54.75.75 1.32.75C3.42.1 4.3-.6 4.3-2c0-1.2-.67-2-1.65-2-.63 0-1.08.28-1.33.71H1.3v-2.45H.6Zm.71-1.26q0-.16.03-.3c.14-.53.6-.87 1.08-.87.77 0 1.17.67 1.17 1.47 0 .89-.43 1.5-1.18 1.5a1.1 1.1 0 0 1-1.08-.83q-.02-.12-.02-.27Zm0 0"/><path id="Y" d="m.08-3.92 1.44 3.6q.06.15.06.2t-.06.17a3 3 0 0 1-.6.8q-.35.27-.62.34l.17.6a2 2 0 0 0 .87-.46C1.83.9 2.2.22 2.7-1.12l1.08-2.8h-.75l-.79 2.3c-.1.28-.18.59-.25.82h-.01c-.08-.23-.17-.54-.27-.8L.84-3.93Zm0 0"/><path id="ae" d="M.14-3.92 1.33 0h.65l.63-1.86q.22-.62.36-1.31h.01c.1.47.2.86.35 1.3L3.93 0h.65l1.26-3.92h-.7l-.56 1.97q-.2.69-.3 1.26h-.03q-.12-.58-.34-1.28L3.3-3.92h-.6l-.64 1.98c-.12.44-.26.86-.34 1.25h-.03q-.12-.6-.28-1.25L.88-3.92Zm0 0"/><path id="af" d="M.1-3.92 1.6 0h.68l1.53-3.92h-.73L2.3-1.73q-.2.55-.33 1.01h-.03q-.11-.46-.3-1.01l-.77-2.2Zm0 0"/><path id="am" d="M.13-3.92 1.45-2 .06 0h.78l.58-.9q.21-.32.4-.66h.02q.2.34.43.67l.57.89h.82L2.28-2.03l1.35-1.9h-.79l-.54.84-.4.65h-.02q-.19-.33-.4-.64l-.56-.84Zm0 0"/><path id="ap" d="m4.03-4.83-.42 2.35c-.2 1-.83 1.64-1.36 1.64-.45 0-.6-.29-.6-.7q0-.28.07-.65l.5-2.64H1.06l-.51 2.7q-.11.49-.1.86C.45-.27 1 .11 1.7.11c.61 0 1.22-.33 1.7-.95L3.3 0h1.03q.08-.63.23-1.5l.64-3.33Zm0 0"/><path id="ax" d="M.27-.05c.25.07.65.1 1.12.1q1.12.02 1.78-.46c.36-.26.64-.7.64-1.26 0-.66-.4-1.08-.89-1.22v-.02c.63-.17 1.19-.67 1.19-1.37q0-.52-.4-.86-.43-.37-1.26-.36-.67.01-1.18.1Zm1.59-4.87q.17-.05.56-.05c.6 0 .99.22.99.75 0 .67-.6 1.08-1.4 1.08h-.5ZM1.4-2.64h.56c.6 0 1.14.28 1.14.92 0 .9-.73 1.22-1.53 1.22q-.3 0-.56-.03Zm0 0"/><path id="ay" d="M1.78 0 3.3-3.25c.23-.48.37-.9.56-1.42h.02c-.05.62-.05.92-.02 1.56L4 0h.72l2.53-5.47h-.7L5.06-2.19q-.3.73-.53 1.4h-.01V-2.3l-.13-3.16h-.72l-1.51 3.3c-.3.7-.43 1.04-.57 1.4h-.01V-2.2l-.13-3.28H.78L1.05 0Zm0 0"/><path id="az" d="M.25 0h2.88l.1-.58h-2.2l.94-4.89H1.3Zm0 0"/><path id="aB" d="M.25 0h.67l.4-2.08.65-.6L3.16 0h.73L2.5-3.1l2.3-2.37h-.84L2.03-3.42l-.55.6h-.03l.5-2.65H1.3Zm0 0"/><path id="aF" d="M.64 1.6C.62 1.29.75.6.84.15L.95-.5h.03c.18.38.63.6 1.1.6 1.1 0 2.05-1.15 2.05-2.55 0-.88-.55-1.57-1.46-1.57q-.82.02-1.33.54C.97-3.14.7-2.64.5-1.62L.16.18A6 6 0 0 0 .02 1.6Zm.56-3.43c.22-1.14.77-1.64 1.35-1.64.6 0 .89.52.89 1.06 0 1.1-.67 1.96-1.4 1.96a.9.9 0 0 1-.9-.86q0-.17.03-.3Zm0 0"/><path id="aG" d="M1.2 0h.68l.92-4.87h1.6l.12-.6H.64l-.1.6h1.59Zm0 0"/><path id="aH" d="M.55 1.6.87-.1H.9c.14.1.42.2.84.2 1.3 0 2.29-1.3 2.29-2.7 0-.71-.35-1.42-1.2-1.42-.54 0-1.05.32-1.41.83H1.4l.11-.75H.9l-.23 1.4-.8 4.15Zm.64-3.35c.2-1.1.86-1.7 1.39-1.7.56 0 .75.5.75.9 0 1.03-.72 2.11-1.6 2.11q-.48 0-.75-.22Zm0 0"/><path id="aI" d="M1.3-5.47.25 0h.67l.49-2.58h2.51L3.44 0h.67l1.05-5.47h-.7l-.43 2.31h-2.5l.44-2.3Zm0 0"/><path id="aK" d="M2.14-.47h-.16c-.2 0-.34-.08-.34-.37q0-.14.03-.35l.4-2.2h1.2l.14-.53H1.3c-.66 0-.94.1-1.1.2v.4c.2-.04.4-.07.82-.07h.39L1-1.25c-.03.19-.06.4-.06.53q.02.8.75.81.21 0 .35-.06Zm0 0"/><path id="aA" d="m1.4.55 1.07-1.1v-.7l-.83.83v-2.99h-.5v2.99l-.83-.83v.7Zm0 0"/><path id="aD" d="M1.64.94 2.97-.41v-.7l-.56.56V-3.8h-.5v3.75l-.27.27-.26-.27V-3.8h-.5v3.25L.3-1.1v.7Zm0 0"/><path id="aJ" d="M1.4-3.52.3-2.44v.72l.83-.83V.44h.5v-2.99l.83.83v-.72Zm0 0"/><path id="aC" d="M.5.6c.2-.32.45-.9.6-1.42l-.7.06C.34-.33.2.25.06.66Zm0 0"/><path id="aE" d="m3.3-3.95-.36 1.92C2.78-1.2 2.28-.7 1.84-.7c-.37 0-.5-.23-.5-.56q0-.24.07-.55l.4-2.15H.88L.45-1.73q-.1.4-.1.7C.36-.22.82.09 1.4.09c.5 0 1-.26 1.38-.78h.01l-.1.69h.85q.07-.51.2-1.22l.52-2.73Zm0 0"/><clipPath id="a"><path d="M57 156h75v1H57Zm0 0"/></clipPath><clipPath id="b"><path d="M0 0h320v174H0Zm125.5 158.05h6.55v-2.84h-6.55l4.72 1.45Zm-62.49-2.84h-6.55v2.84h6.55l-4.72-1.39Zm0 0" clip-rule="evenodd"/></clipPath><clipPath id="c"><path d="M170 34h2v27h-2Zm0 0"/></clipPath><clipPath id="d"><path d="M0 0h320v174H0Zm172.18 41.2v-7.37h-2.84v7.37l1.45-4.72Zm-2.84 12.66v7.37h2.84v-7.37l-1.4 4.73Zm0 0" clip-rule="evenodd"/></clipPath><clipPath id="e"><path d="M116 122h27v2h-27Zm0 0"/></clipPath><clipPath id="f"><path d="M0 0h320v174H0Zm136.02 124.03h7.37v-2.83h-7.37l4.72 1.44Zm-12.66-2.83h-7.37v2.83h7.37l-4.73-1.39Zm0 0" clip-rule="evenodd"/></clipPath><clipPath id="g"><path d="M105 119h2v27h-2Zm0 0"/></clipPath><clipPath id="h"><path d="M0 0h320v174H0Zm106.98 126.23v-7.36h-2.84v7.36l1.45-4.72Zm-2.84 12.67v7.37h2.84v-7.37l-1.39 4.72Zm0 0" clip-rule="evenodd"/></clipPath><clipPath id="i"><path d="M0 113h58v2H0Zm0 0"/></clipPath><clipPath id="j"><path d="M0 0h320v174H0Zm51.8 115.53h6.55v-2.83H51.8l4.73 1.44ZM6.4 112.7H-.23v2.83h6.62l-4.73-1.39Zm0 0" clip-rule="evenodd"/></clipPath><clipPath id="k"><path d="M130 147h59v2h-59Zm0 0"/></clipPath><clipPath id="l"><path d="M0 0h320v174H0Zm182.2 149.54h6.54v-2.83h-6.55l4.72 1.45Zm-45.49-2.83h-6.55v2.83h6.55l-4.72-1.38Zm0 0" clip-rule="evenodd"/></clipPath><clipPath id="m"><path d="M116 90h27v2h-27Zm0 0"/></clipPath><clipPath id="n"><path d="M0 0h320v174H0Zm136.02 92.85h7.37v-2.83h-7.37l4.72 1.44Zm-12.66-2.83h-7.37v2.83h7.37l-4.73-1.39Zm0 0" clip-rule="evenodd"/></clipPath><clipPath id="o"><path d="M82 17h2v27h-2Zm0 0"/></clipPath><clipPath id="p"><path d="M0 0h320v174H0Zm81.47 36.86v7.36h2.83v-7.36l-1.38 4.72Zm0 0" clip-rule="evenodd"/></clipPath><clipPath id="q"><path d="M92 17h4v27h-4Zm0 0"/></clipPath><clipPath id="r"><path d="M0 0h320v174H0Zm92.8 36.86v7.36h2.84v-7.36l-1.38 4.72Zm0 0" clip-rule="evenodd"/></clipPath><clipPath id="s"><path d="M103 17h5v27h-5Zm0 0"/></clipPath><clipPath id="t"><path d="M0 0h320v174H0Zm104.14 36.86v7.36h2.84v-7.36l-1.39 4.72Zm0 0" clip-rule="evenodd"/></clipPath><clipPath id="u"><path d="M114 17h4v27h-4Zm0 0"/></clipPath><clipPath id="v"><path d="M0 0h320v174H0Zm117.75 24.2v-7.38h-2.83v7.37l1.45-4.72Zm0 0" clip-rule="evenodd"/></clipPath><clipPath id="w"><path d="M123 17h4v27h-4Zm0 0"/></clipPath><clipPath id="x"><path d="M0 0h320v174H0Zm126.82 24.2v-7.38h-2.83v7.37l1.45-4.72Zm0 0" clip-rule="evenodd"/></clipPath><clipPath id="y"><path d="M39 11h2v28h-2Zm0 0"/></clipPath><clipPath id="z"><path d="M0 0h320v174H0Zm41.79 18.52v-7.37h-2.77v7.37l1.38-4.72Zm-2.77 12.66v7.37h2.77v-7.37l-1.4 4.73Zm0 0" clip-rule="evenodd"/></clipPath><clipPath id="A"><path d="M68 122h27v2H68Zm0 0"/></clipPath><clipPath id="B"><path d="M0 0h320v174H0Zm87.83 124.03h7.37v-2.83h-7.37l4.72 1.44Zm-12.66-2.83H67.8v2.83h7.37l-4.72-1.39Zm0 0" clip-rule="evenodd"/></clipPath><clipPath id="C"><path d="M68 59h27v2H68Zm0 0"/></clipPath><clipPath id="D"><path d="M0 0h320v174H0Zm87.83 61.67h7.37v-2.83h-7.37l4.72 1.45Zm-12.66-2.83H67.8v2.83h7.37l-4.72-1.38Zm0 0" clip-rule="evenodd"/></clipPath><clipPath id="E"><path d="M68 90h27v2H68Zm0 0"/></clipPath><clipPath id="F"><path d="M0 0h320v174H0Zm87.83 92.85h7.37v-2.83h-7.37l4.72 1.44Zm-12.66-2.83H67.8v2.83h7.37l-4.72-1.39Zm0 0" clip-rule="evenodd"/></clipPath></defs><path d="M0 0h320v174H0z" style="fill:#fff;stroke:none;stroke-width:2.25;fill-opacity:1"/><path fill="none" stroke="#000" stroke-linecap="round" stroke-linejoin="round" stroke-miterlimit="10" stroke-width=".47" d="m57.4 48.95 22.68-22.68v107.71l-22.67 22.68Zm0 0"/><g clip-path="url(#a)"><g clip-path="url(#b)"><path fill="none" stroke="#000" stroke-miterlimit="10" stroke-width=".47" d="M57.4 156.66h73.7"/></g></g><path fill-rule="evenodd" stroke="#000" stroke-miterlimit="10" stroke-width=".47" d="m63.01 155.21-4.72 1.45 4.72 1.39Zm62.49 2.84 4.72-1.39-4.72-1.45Zm0 0"/><path fill="none" stroke="#000" stroke-miterlimit="10" stroke-width=".47" d="m187.8 156.66 22.67-22.68V48.95"/><path fill="none" stroke="#000" stroke-dasharray="3.7794 1.51176 .94485 1.13382 .94485 1.13382 .94485 1.51176" stroke-miterlimit="10" stroke-width=".47" d="m131.1 156.66 22.68-22.68V48.95m0 85.03h56.7m-187.08 0h56.68"/><g clip-path="url(#c)"><g clip-path="url(#d)"><path fill="none" stroke="#00008F" stroke-miterlimit="10" stroke-width=".94" d="M170.79 60.29V34.77"/></g></g><path fill="#FFF" fill-rule="evenodd" stroke="#00008F" stroke-miterlimit="10" stroke-width=".94" d="m169.34 53.86 1.45 4.73 1.39-4.73Zm2.84-12.66-1.4-4.72-1.44 4.72Zm0 0"/><g clip-path="url(#e)"><g clip-path="url(#f)"><path fill="none" stroke="#00008F" stroke-miterlimit="10" stroke-width=".94" d="M116.93 122.64h25.52"/></g></g><path fill="#FFF" fill-rule="evenodd" stroke="#00008F" stroke-miterlimit="10" stroke-width=".94" d="m123.36 121.2-4.73 1.44 4.73 1.4Zm12.66 2.83 4.72-1.39-4.72-1.44Zm0 0"/><g clip-path="url(#g)"><g clip-path="url(#h)"><path fill="none" stroke="#00008F" stroke-miterlimit="10" stroke-width=".94" d="M105.6 145.32v-25.5"/></g></g><path fill="#FFF" fill-rule="evenodd" stroke="#00008F" stroke-miterlimit="10" stroke-width=".94" d="m104.14 138.9 1.45 4.72 1.39-4.72Zm2.84-12.67-1.39-4.72-1.45 4.72Zm0 0"/><g clip-path="url(#i)"><g clip-path="url(#j)"><path fill="none" stroke="#000" stroke-linejoin="round" stroke-miterlimit="10" stroke-width=".47" d="M.71 114.14h56.7"/></g></g><path fill-rule="evenodd" stroke="#000" stroke-miterlimit="10" stroke-width=".47" d="m6.39 112.7-4.73 1.44 4.73 1.39Zm45.41 2.83 4.73-1.39-4.73-1.44Zm0 0"/><path fill="none" stroke="#000" stroke-dasharray="3.7794 1.51176 .94485 1.13382 .94485 1.13382 .94485 1.51176" stroke-linecap="round" stroke-miterlimit="10" stroke-width=".47" d="M23.4 26.27v107.71L.7 156.66"/><path fill="none" stroke="#000" stroke-linecap="round" stroke-linejoin="round" stroke-miterlimit="10" stroke-width=".47" d="M57.4 48.95H.72L23.4 26.27h56.7m73.68 22.68-22.67 22.67v85.04"/><path fill="none" stroke="#000" stroke-linecap="round" stroke-linejoin="round" stroke-miterlimit="10" stroke-width=".47" d="M131.1 71.63h56.7l22.67-22.68h-56.69m-153.07 0v107.71h56.7"/><path fill="none" stroke="#000" stroke-linecap="round" stroke-miterlimit="10" stroke-width=".47" d="M187.8 71.63v85.03h-56.7"/><g clip-path="url(#k)"><g clip-path="url(#l)"><path fill="none" stroke="#000" stroke-linejoin="round" stroke-miterlimit="10" stroke-width=".47" d="M131.1 148.16h56.7"/></g></g><path fill-rule="evenodd" stroke="#000" stroke-miterlimit="10" stroke-width=".47" d="m136.71 146.7-4.72 1.46 4.72 1.38Zm45.49 2.84 4.71-1.38-4.72-1.45Zm0 0"/><g clip-path="url(#m)"><g clip-path="url(#n)"><path fill="none" stroke="#00008F" stroke-miterlimit="10" stroke-width=".94" d="M116.93 91.46h25.52"/></g></g><path fill="#FFF" fill-rule="evenodd" stroke="#00008F" stroke-miterlimit="10" stroke-width=".94" d="m123.36 90.02-4.73 1.44 4.73 1.4Zm12.66 2.83 4.72-1.39-4.72-1.44Zm0 0"/><g clip-path="url(#o)"><g clip-path="url(#p)"><path fill="none" stroke="#8F0000" stroke-dasharray="2.84" stroke-miterlimit="10" stroke-width=".94" d="M82.92 43.28V17.77"/></g></g><path fill="#8F0000" fill-rule="evenodd" stroke="#8F0000" stroke-miterlimit="10" stroke-width=".94" d="m81.47 36.86 1.45 4.72 1.38-4.72Zm0 0"/><g clip-path="url(#q)"><g clip-path="url(#r)"><path fill="none" stroke="#8F0000" stroke-linejoin="bevel" stroke-miterlimit="10" stroke-width=".94" d="m94.26 17.77-.06.06-.38.5-.57.7-.38.63-.12.5.12.44.31.44.44.5.58.51.5.44.37.5.13.45-.13.44-.37.5-.44.5-.44.44-.38.5-.13.45.13.44.38.5.44.5.44.45.37.5.13.45-.13.44-.37.5-.5.5-.58.45-.44.5-.3.44-.13.44v.5l.25.51.25.44.31.5.26.44.12.44.19.5.07.51.06.44v6.62"/></g></g><path fill="#8F0000" fill-rule="evenodd" stroke="#8F0000" stroke-miterlimit="10" stroke-width=".94" d="m92.8 36.86 1.46 4.72 1.38-4.72Zm0 0"/><g clip-path="url(#s)"><g clip-path="url(#t)"><path fill="none" stroke="#8F0000" stroke-linejoin="bevel" stroke-miterlimit="10" stroke-width=".94" d="m105.6 17.77-.07.06-.38.5-.56.7-.38.63-.13.5.13.44.31.44.44.5.57.51.5.44.38.5.13.45-.13.44-.37.5-.45.5-.44.44-.37.5-.13.45.13.44.37.5.44.5.45.45.37.5.13.45-.13.44-.37.5-.5.5-.58.45-.44.5-.3.44-.14.44v.5l.26.51.25.44.31.5.25.44.13.44.19.5.06.51.06.44v6.62"/></g></g><path fill="#8F0000" fill-rule="evenodd" stroke="#8F0000" stroke-miterlimit="10" stroke-width=".94" d="m104.14 36.86 1.45 4.72 1.39-4.72Zm0 0"/><g clip-path="url(#u)"><g clip-path="url(#v)"><path fill="none" stroke="#00008F" stroke-linejoin="bevel" stroke-miterlimit="10" stroke-width=".94" d="m116.37 43.28-.07-.07-.37-.5-.57-.69-.38-.63-.12-.5.12-.44.32-.45.43-.5.57-.5.5-.45.38-.5.13-.44-.13-.44-.37-.5-.44-.51-.44-.44-.38-.5-.13-.45.13-.43.38-.51.44-.5.44-.44.37-.5.13-.45-.13-.44-.37-.5-.5-.5-.58-.45-.43-.5-.32-.44-.12-.45v-.5l.25-.5.25-.45.31-.5.26-.44.12-.44.19-.5.06-.51.07-.44v-6.61"/></g></g><path fill="#00008F" fill-rule="evenodd" stroke="#00008F" stroke-miterlimit="10" stroke-width=".94" d="m117.75 24.2-1.38-4.73-1.45 4.72Zm0 0"/><g clip-path="url(#w)"><g clip-path="url(#x)"><path fill="none" stroke="#00008F" stroke-linejoin="bevel" stroke-miterlimit="10" stroke-width=".94" d="m125.44 43.28-.07-.07-.37-.5-.57-.69-.38-.63-.12-.5.12-.44.32-.45.44-.5.56-.5.5-.45.38-.5.13-.44-.13-.44-.37-.5-.44-.51-.44-.44-.38-.5-.13-.45.13-.43.38-.51.44-.5.44-.44.37-.5.13-.45-.13-.44-.37-.5-.5-.5-.57-.45-.44-.5-.32-.44-.12-.45v-.5l.25-.5.25-.45.31-.5.26-.44.12-.44.2-.5.05-.51.07-.44v-6.61"/></g></g><path fill="#00008F" fill-rule="evenodd" stroke="#00008F" stroke-miterlimit="10" stroke-width=".94" d="m126.82 24.2-1.38-4.73-1.45 4.72Zm0 0"/><g clip-path="url(#y)"><g clip-path="url(#z)"><path fill="none" stroke="#00008F" stroke-miterlimit="10" stroke-width=".94" d="M40.4 37.6V12.1"/></g></g><path fill="#FFF" fill-rule="evenodd" stroke="#00008F" stroke-miterlimit="10" stroke-width=".94" d="m39.02 31.18 1.38 4.73 1.39-4.73Zm2.77-12.66-1.4-4.72-1.37 4.72Zm0 0"/><g clip-path="url(#A)"><g clip-path="url(#B)"><path fill="none" stroke="#00008F" stroke-miterlimit="10" stroke-width=".94" d="M68.75 122.64h25.5"/></g></g><path fill="#FFF" fill-rule="evenodd" stroke="#00008F" stroke-miterlimit="10" stroke-width=".94" d="m75.17 121.2-4.72 1.44 4.72 1.4Zm12.66 2.83 4.72-1.39-4.72-1.44Zm0 0"/><g clip-path="url(#C)"><g clip-path="url(#D)"><path fill="none" stroke="#00008F" stroke-miterlimit="10" stroke-width=".94" d="M68.75 60.29h25.5"/></g></g><path fill="#FFF" fill-rule="evenodd" stroke="#00008F" stroke-miterlimit="10" stroke-width=".94" d="m75.17 58.84-4.72 1.45 4.72 1.38Zm12.66 2.83 4.72-1.38-4.72-1.45Zm0 0"/><g clip-path="url(#E)"><g clip-path="url(#F)"><path fill="none" stroke="#00008F" stroke-miterlimit="10" stroke-width=".94" d="M68.75 91.46h25.5"/></g></g><path fill="#FFF" fill-rule="evenodd" stroke="#00008F" stroke-miterlimit="10" stroke-width=".94" d="m75.17 90.02-4.72 1.44 4.72 1.4Zm12.66 2.83 4.72-1.39-4.72-1.44Zm0 0"/><use xlink:href="#G" x="101.52" y="11.96" fill="#8F0000"/><use xlink:href="#H" x="106.2" y="6.8" fill="#8F0000"/><use xlink:href="#I" x="89.88" y="11.96" fill="#8F0000"/><use xlink:href="#H" x="95.88" y="6.8" fill="#8F0000"/><use xlink:href="#G" x="121.44" y="11.96" fill="#00008F"/><use xlink:href="#J" x="126.12" y="6.8" fill="#00008F"/><use xlink:href="#I" x="111.84" y="11.96" fill="#00008F"/><use xlink:href="#J" x="117.84" y="6.8" fill="#00008F"/><use xlink:href="#K" x="225.12" y="5.96" fill="#8F0000"/><use xlink:href="#L" x="227.16" y="5.96" fill="#8F0000"/><use xlink:href="#M" x="231.72" y="5.96" fill="#8F0000"/><use xlink:href="#N" x="236.28" y="5.96" fill="#8F0000"/><use xlink:href="#O" x="240.72" y="5.96" fill="#8F0000"/><use xlink:href="#P" x="243.36" y="5.96" fill="#8F0000"/><use xlink:href="#Q" x="244.08" y="48.8" fill="#8F0000"/><use xlink:href="#R" x="250.08" y="48.8" fill="#8F0000"/><use xlink:href="#L" x="252" y="48.8" fill="#8F0000"/><use xlink:href="#S" x="256.56" y="48.8" fill="#8F0000"/><use xlink:href="#T" x="262.8" y="48.8" fill="#8F0000"/><use xlink:href="#U" x="266.64" y="48.8" fill="#8F0000"/><use xlink:href="#V" x="270.72" y="48.8" fill="#8F0000"/><use xlink:href="#W" x="272.64" y="48.8" fill="#8F0000"/><use xlink:href="#X" x="277.08" y="48.8" fill="#8F0000"/><use xlink:href="#R" x="280.68" y="48.8" fill="#8F0000"/><use xlink:href="#O" x="282.6" y="48.8" fill="#8F0000"/><use xlink:href="#Y" x="285.36" y="48.8" fill="#8F0000"/><use xlink:href="#Z" x="244.08" y="77.72" fill="#8F0000"/><use xlink:href="#R" x="248.04" y="77.72" fill="#8F0000"/><use xlink:href="#aa" x="249.96" y="77.72" fill="#8F0000"/><use xlink:href="#O" x="254.28" y="77.72" fill="#8F0000"/><use xlink:href="#U" x="256.92" y="77.72" fill="#8F0000"/><use xlink:href="#ab" x="261" y="77.72" fill="#8F0000"/><use xlink:href="#M" x="267.72" y="77.72" fill="#8F0000"/><use xlink:href="#U" x="272.28" y="77.72" fill="#8F0000"/><use xlink:href="#aa" x="276.36" y="77.72" fill="#8F0000"/><use xlink:href="#Z" x="279" y="77.72" fill="#8F0000"/><use xlink:href="#O" x="282.96" y="77.72" fill="#8F0000"/><use xlink:href="#N" x="285.6" y="77.72" fill="#8F0000"/><use xlink:href="#aa" x="290.04" y="77.72" fill="#8F0000"/><use xlink:href="#U" x="292.56" y="77.72" fill="#8F0000"/><use xlink:href="#Z" x="244.08" y="62.72" fill="#8F0000"/><use xlink:href="#R" x="248.04" y="62.72" fill="#8F0000"/><use xlink:href="#aa" x="249.96" y="62.72" fill="#8F0000"/><use xlink:href="#S" x="254.28" y="62.72" fill="#8F0000"/><use xlink:href="#U" x="258.84" y="62.72" fill="#8F0000"/><use xlink:href="#L" x="262.92" y="62.72" fill="#8F0000"/><use xlink:href="#ac" x="267.48" y="62.72" fill="#8F0000"/><use xlink:href="#R" x="270.72" y="62.72" fill="#8F0000"/><use xlink:href="#O" x="272.64" y="62.72" fill="#8F0000"/><use xlink:href="#Y" x="275.4" y="62.72" fill="#8F0000"/><use xlink:href="#Z" x="244.08" y="91.64" fill="#8F0000"/><use xlink:href="#R" x="248.04" y="91.64" fill="#8F0000"/><use xlink:href="#aa" x="249.96" y="91.64" fill="#8F0000"/><use xlink:href="#M" x="254.28" y="91.64" fill="#8F0000"/><use xlink:href="#aa" x="258.84" y="91.64" fill="#8F0000"/><use xlink:href="#U" x="261.36" y="91.64" fill="#8F0000"/><use xlink:href="#ac" x="265.44" y="91.64" fill="#8F0000"/><use xlink:href="#ac" x="268.68" y="91.64" fill="#8F0000"/><use xlink:href="#N" x="271.92" y="91.64" fill="#8F0000"/><use xlink:href="#aa" x="276.36" y="91.64" fill="#8F0000"/><use xlink:href="#U" x="278.88" y="91.64" fill="#8F0000"/><use xlink:href="#V" x="244.08" y="20.96" fill="#8F0000"/><use xlink:href="#W" x="246" y="20.96" fill="#8F0000"/><use xlink:href="#L" x="250.44" y="20.96" fill="#8F0000"/><use xlink:href="#ad" x="255" y="20.96" fill="#8F0000"/><use xlink:href="#ae" x="259.56" y="20.96" fill="#8F0000"/><use xlink:href="#Z" x="265.56" y="20.96" fill="#8F0000"/><use xlink:href="#af" x="269.4" y="20.96" fill="#8F0000"/><use xlink:href="#U" x="273.24" y="20.96" fill="#8F0000"/><use xlink:href="#aa" x="278.88" y="20.96" fill="#8F0000"/><use xlink:href="#Z" x="281.52" y="20.96" fill="#8F0000"/><use xlink:href="#S" x="285.48" y="20.96" fill="#8F0000"/><use xlink:href="#ag" x="289.92" y="20.96" fill="#8F0000"/><use xlink:href="#ah" x="293.64" y="20.96" fill="#8F0000"/><use xlink:href="#S" x="295.92" y="20.96" fill="#8F0000"/><use xlink:href="#W" x="300.48" y="20.96" fill="#8F0000"/><use xlink:href="#ae" x="304.92" y="20.96" fill="#8F0000"/><use xlink:href="#L" x="310.92" y="20.96" fill="#8F0000"/><use xlink:href="#ai" x="315.48" y="20.96" fill="#8F0000"/><use xlink:href="#ac" x="244.08" y="34.88" fill="#8F0000"/><use xlink:href="#aj" x="247.32" y="34.88" fill="#8F0000"/><use xlink:href="#W" x="251.88" y="34.88" fill="#8F0000"/><use xlink:href="#aa" x="256.32" y="34.88" fill="#8F0000"/><use xlink:href="#O" x="259.2" y="34.88" fill="#8F0000"/><use xlink:href="#ae" x="261.96" y="34.88" fill="#8F0000"/><use xlink:href="#Z" x="267.96" y="34.88" fill="#8F0000"/><use xlink:href="#af" x="271.8" y="34.88" fill="#8F0000"/><use xlink:href="#U" x="275.64" y="34.88" fill="#8F0000"/><use xlink:href="#aa" x="281.28" y="34.88" fill="#8F0000"/><use xlink:href="#Z" x="283.92" y="34.88" fill="#8F0000"/><use xlink:href="#S" x="287.88" y="34.88" fill="#8F0000"/><use xlink:href="#ag" x="292.32" y="34.88" fill="#8F0000"/><use xlink:href="#ah" x="295.92" y="34.88" fill="#8F0000"/><use xlink:href="#S" x="298.2" y="34.88" fill="#8F0000"/><use xlink:href="#W" x="302.76" y="34.88" fill="#8F0000"/><use xlink:href="#ae" x="307.2" y="34.88" fill="#8F0000"/><use xlink:href="#L" x="313.2" y="34.88" fill="#8F0000"/><use xlink:href="#ai" x="317.76" y="34.88" fill="#8F0000"/><use xlink:href="#ak" x="225.12" y="111.56" fill="#00008F"/><use xlink:href="#N" x="230.76" y="111.56" fill="#00008F"/><use xlink:href="#O" x="235.2" y="111.56" fill="#00008F"/><use xlink:href="#M" x="237.84" y="111.56" fill="#00008F"/><use xlink:href="#N" x="242.4" y="111.56" fill="#00008F"/><use xlink:href="#O" x="246.84" y="111.56" fill="#00008F"/><use xlink:href="#P" x="249.48" y="111.56" fill="#00008F"/><use xlink:href="#ab" x="244.08" y="125.48" fill="#00008F"/><use xlink:href="#W" x="250.8" y="125.48" fill="#00008F"/><use xlink:href="#ab" x="255.24" y="125.48" fill="#00008F"/><use xlink:href="#U" x="261.96" y="125.48" fill="#00008F"/><use xlink:href="#L" x="266.04" y="125.48" fill="#00008F"/><use xlink:href="#O" x="270.6" y="125.48" fill="#00008F"/><use xlink:href="#N" x="273.24" y="125.48" fill="#00008F"/><use xlink:href="#ab" x="277.68" y="125.48" fill="#00008F"/><use xlink:href="#al" x="286.2" y="125.48" fill="#00008F"/><use xlink:href="#N" x="290.4" y="125.48" fill="#00008F"/><use xlink:href="#am" x="294.84" y="125.48" fill="#00008F"/><use xlink:href="#ac" x="244.08" y="139.52" fill="#00008F"/><use xlink:href="#U" x="247.32" y="139.52" fill="#00008F"/><use xlink:href="#L" x="251.4" y="139.52" fill="#00008F"/><use xlink:href="#ac" x="255.96" y="139.52" fill="#00008F"/><use xlink:href="#R" x="259.2" y="139.52" fill="#00008F"/><use xlink:href="#an" x="261.12" y="139.52" fill="#00008F"/><use xlink:href="#V" x="265.68" y="139.52" fill="#00008F"/><use xlink:href="#U" x="267.6" y="139.52" fill="#00008F"/><use xlink:href="#aj" x="273.24" y="139.52" fill="#00008F"/><use xlink:href="#U" x="277.8" y="139.52" fill="#00008F"/><use xlink:href="#Z" x="281.88" y="139.52" fill="#00008F"/><use xlink:href="#O" x="285.84" y="139.52" fill="#00008F"/><use xlink:href="#al" x="290.16" y="139.52" fill="#00008F"/><use xlink:href="#N" x="294.36" y="139.52" fill="#00008F"/><use xlink:href="#am" x="298.8" y="139.52" fill="#00008F"/><use xlink:href="#V" x="244.08" y="153.44" fill="#00008F"/><use xlink:href="#W" x="246" y="153.44" fill="#00008F"/><use xlink:href="#L" x="250.44" y="153.44" fill="#00008F"/><use xlink:href="#ad" x="255" y="153.44" fill="#00008F"/><use xlink:href="#ae" x="259.56" y="153.44" fill="#00008F"/><use xlink:href="#Z" x="265.56" y="153.44" fill="#00008F"/><use xlink:href="#af" x="269.4" y="153.44" fill="#00008F"/><use xlink:href="#U" x="273.24" y="153.44" fill="#00008F"/><use xlink:href="#aa" x="278.88" y="153.44" fill="#00008F"/><use xlink:href="#Z" x="281.52" y="153.44" fill="#00008F"/><use xlink:href="#S" x="285.48" y="153.44" fill="#00008F"/><use xlink:href="#ag" x="289.92" y="153.44" fill="#00008F"/><use xlink:href="#ah" x="293.64" y="153.44" fill="#00008F"/><use xlink:href="#N" x="295.92" y="153.44" fill="#00008F"/><use xlink:href="#M" x="300.36" y="153.44" fill="#00008F"/><use xlink:href="#ai" x="304.92" y="153.44" fill="#00008F"/><use xlink:href="#ac" x="244.08" y="168.32" fill="#00008F"/><use xlink:href="#aj" x="247.32" y="168.32" fill="#00008F"/><use xlink:href="#W" x="251.88" y="168.32" fill="#00008F"/><use xlink:href="#aa" x="256.32" y="168.32" fill="#00008F"/><use xlink:href="#O" x="259.2" y="168.32" fill="#00008F"/><use xlink:href="#ae" x="261.96" y="168.32" fill="#00008F"/><use xlink:href="#Z" x="267.96" y="168.32" fill="#00008F"/><use xlink:href="#af" x="271.8" y="168.32" fill="#00008F"/><use xlink:href="#U" x="275.64" y="168.32" fill="#00008F"/><use xlink:href="#aa" x="281.28" y="168.32" fill="#00008F"/><use xlink:href="#Z" x="283.92" y="168.32" fill="#00008F"/><use xlink:href="#S" x="287.88" y="168.32" fill="#00008F"/><use xlink:href="#ag" x="292.32" y="168.32" fill="#00008F"/><use xlink:href="#ah" x="295.92" y="168.32" fill="#00008F"/><use xlink:href="#N" x="298.2" y="168.32" fill="#00008F"/><use xlink:href="#M" x="302.64" y="168.32" fill="#00008F"/><use xlink:href="#ai" x="307.2" y="168.32" fill="#00008F"/><use xlink:href="#ao" x="93.12" y="153.44"/><use xlink:href="#ap" x="102.72" y="60.8" fill="#8F0000"/><use xlink:href="#aq" x="102.96" y="74.72" fill="#8F0000"/><use xlink:href="#ar" x="102.84" y="91.64" fill="#8F0000"/><use xlink:href="#as" x="102.96" y="105.56" fill="#8F0000"/><use xlink:href="#at" x="29.4" y="111.56"/><use xlink:href="#at" x="162.84" y="145.4"/><use xlink:href="#I" x="77.64" y="11.96" fill="#8F0000"/><use xlink:href="#au" x="83.64" y="6.8" fill="#8F0000"/><use xlink:href="#av" x="32.88" y="23.96" fill="#00008F"/><use xlink:href="#aw" x="42.72" y="23.96" fill="#00008F"/><use xlink:href="#ax" x="10.68" y="171.32" transform="translate(24.83)"/><use xlink:href="#P" x="15" y="171.32" transform="translate(24.83)"/><use xlink:href="#an" x="18.84" y="171.32" transform="translate(24.83)"/><use xlink:href="#N" x="23.4" y="171.32" transform="translate(24.83)"/><use xlink:href="#R" x="27.84" y="171.32" transform="translate(24.83)"/><use xlink:href="#V" x="29.76" y="171.32" transform="translate(24.83)"/><use xlink:href="#S" x="31.68" y="171.32" transform="translate(24.83)"/><use xlink:href="#R" x="36.24" y="171.32" transform="translate(24.83)"/><use xlink:href="#L" x="38.16" y="171.32" transform="translate(24.83)"/><use xlink:href="#ad" x="42.72" y="171.32" transform="translate(24.83)"/><use xlink:href="#ae" x="48.96" y="171.32" transform="translate(24.83)"/><use xlink:href="#R" x="54.96" y="171.32" transform="translate(24.83)"/><use xlink:href="#S" x="56.88" y="171.32" transform="translate(24.83)"/><use xlink:href="#O" x="61.44" y="171.32" transform="translate(24.83)"/><use xlink:href="#aj" x="64.08" y="171.32" transform="translate(24.83)"/><use xlink:href="#ay" x="76.68" y="171.32" transform="translate(24.83)"/><use xlink:href="#P" x="84" y="171.32" transform="translate(24.83)"/><use xlink:href="#ac" x="87.84" y="171.32" transform="translate(24.83)"/><use xlink:href="#O" x="91.08" y="171.32" transform="translate(24.83)"/><use xlink:href="#aa" x="93.72" y="171.32" transform="translate(24.83)"/><use xlink:href="#U" x="96.24" y="171.32" transform="translate(24.83)"/><use xlink:href="#U" x="100.32" y="171.32" transform="translate(24.83)"/><use xlink:href="#O" x="104.4" y="171.32" transform="translate(24.83)"/><use xlink:href="#ae" x="108.84" y="171.32" transform="translate(24.83)"/><use xlink:href="#R" x="114.84" y="171.32" transform="translate(24.83)"/><use xlink:href="#S" x="116.76" y="171.32" transform="translate(24.83)"/><use xlink:href="#O" x="121.32" y="171.32" transform="translate(24.83)"/><use xlink:href="#aj" x="123.96" y="171.32" transform="translate(24.83)"/><use xlink:href="#az" x="225.24" y="20.96" fill="#8F0000"/><use xlink:href="#aA" x="228.96" y="16.64" fill="#8F0000"/><use xlink:href="#P" x="232.32" y="20.96" fill="#8F0000"/><use xlink:href="#aB" x="225.24" y="34.88" fill="#8F0000"/><use xlink:href="#aA" x="230.04" y="30.68" fill="#8F0000"/><use xlink:href="#aC" x="233.04" y="30.68" fill="#8F0000"/><use xlink:href="#aD" x="234.6" y="30.68" fill="#8F0000"/><use xlink:href="#P" x="238.44" y="34.88" fill="#8F0000"/><use xlink:href="#aE" x="225.12" y="48.8" fill="#8F0000"/><use xlink:href="#P" x="229.8" y="48.8" fill="#8F0000"/><use xlink:href="#aF" x="225.36" y="62.72" fill="#8F0000"/><use xlink:href="#P" x="229.92" y="62.72" fill="#8F0000"/><use xlink:href="#aG" x="225.24" y="77.72" fill="#8F0000"/><use xlink:href="#P" x="229.8" y="77.72" fill="#8F0000"/><use xlink:href="#aH" x="225.24" y="91.64" fill="#8F0000"/><use xlink:href="#P" x="229.56" y="91.64" fill="#8F0000"/><use xlink:href="#aI" x="225.24" y="139.52" fill="#00008F"/><use xlink:href="#P" x="230.4" y="139.52" fill="#00008F"/><use xlink:href="#az" x="225.24" y="153.44" fill="#00008F"/><use xlink:href="#aJ" x="228.96" y="149.24" fill="#00008F"/><use xlink:href="#P" x="232.32" y="153.44" fill="#00008F"/><use xlink:href="#aB" x="225.24" y="168.32" fill="#00008F"/><use xlink:href="#aJ" x="230.04" y="164.12" fill="#00008F"/><use xlink:href="#P" x="233.4" y="168.32" fill="#00008F"/><use xlink:href="#aK" x="225.24" y="125.48" fill="#00008F"/><use xlink:href="#P" x="228.6" y="125.48" fill="#00008F"/></svg>