<?xml version="1.0" encoding="UTF-8" standalone="no"?>
<svg
   width="632.58"
   height="493.32"
   viewBox="0 0 167.37 130.53"
   version="1.1"
   id="svg21"
   sodipodi:docname="domains.svg"
   inkscape:version="1.4.2 (ebf0e940d0, 2025-05-08)"
   xmlns:inkscape="http://www.inkscape.org/namespaces/inkscape"
   xmlns:sodipodi="http://sodipodi.sourceforge.net/DTD/sodipodi-0.dtd"
   xmlns="http://www.w3.org/2000/svg"
   xmlns:svg="http://www.w3.org/2000/svg">
  <sodipodi:namedview
     id="namedview21"
     pagecolor="#ffffff"
     bordercolor="#000000"
     borderopacity="0.25"
     inkscape:showpageshadow="2"
     inkscape:pageopacity="0.0"
     inkscape:pagecheckerboard="0"
     inkscape:deskcolor="#d1d1d1"
     inkscape:zoom="2.4973648"
     inkscape:cx="316.13324"
     inkscape:cy="246.66"
     inkscape:window-width="2560"
     inkscape:window-height="1518"
     inkscape:window-x="0"
     inkscape:window-y="0"
     inkscape:window-maximized="1"
     inkscape:current-layer="svg21" />
  <defs
     id="defs2">
    <marker
       id="a"
       markerHeight=".9"
       markerWidth=".9"
       orient="auto-start-reverse"
       preserveAspectRatio="xMidYMid"
       refX="0"
       refY="0"
       style="overflow:visible"
       viewBox="0 0 1 1">
      <path
         d="M-2-4 9 0-2 4c2-2.33 2-5.66 0-8"
         style="fill:context-stroke;fill-rule:evenodd;stroke:none"
         transform="scale(.7)"
         id="path1" />
    </marker>
    <marker
       id="b"
       markerHeight=".9"
       markerWidth=".9"
       orient="auto-start-reverse"
       preserveAspectRatio="xMidYMid"
       refX="0"
       refY="0"
       style="overflow:visible"
       viewBox="0 0 1 1">
      <path
         d="M-2-4 9 0-2 4c2-2.33 2-5.66 0-8"
         style="fill:context-stroke;fill-rule:evenodd;stroke:none"
         transform="scale(.7)"
         id="path2" />
    </marker>
  </defs>
  <path
     d="M0 0h167.37v130.53H0z"
     style="fill:#fff;fill-opacity:1;stroke-width:0;stroke-linecap:round;stroke-linejoin:round;stroke-dasharray:none"
     id="path3" />
  <path
     d="M48.28 12.44h127.91v75.07H48.28z"
     style="fill:#000;fill-opacity:.3;stroke:#000;stroke-width:.79375;stroke-linejoin:round"
     transform="rotate(15)"
     id="path4" />
  <path
     d="m24 97.02 21.58-80.55"
     style="fill:#fff;stroke:#000;stroke-width:.79375;stroke-linecap:round;stroke-linejoin:bevel;marker-end:url(#a)"
     id="path5" />
  <path
     d="M24 97.02v-83.4"
     style="fill:#fff;stroke:#000;stroke-width:.79375;stroke-linecap:round;stroke-linejoin:round;marker-end:url(#b)"
     id="path6" />
  <path
     d="M24 17.45a77 77 0 0 1 16.1 1.7"
     style="fill:none;stroke:#000;stroke-width:.794;stroke-linecap:round;stroke-linejoin:round;stroke-dasharray:none;marker-end:url(#b)"
     id="path7" />
  <text
     xml:space="preserve"
     x="27.299999"
     y="7.0700002"
     style="font-size:9.87777px;font-family:Arial;-inkscape-font-specification:Arial;text-align:center;writing-mode:lr-tb;direction:ltr;text-anchor:middle;fill:#000000;fill-opacity:1;stroke:none;stroke-width:0.793999;stroke-linecap:round;stroke-linejoin:round;stroke-dasharray:none"
     id="text9"><tspan
       x="27.299999"
       y="7.0700002"
       style="text-align:center;text-anchor:middle;fill:#000000;fill-opacity:1;stroke:none;stroke-width:0.794"
       id="tspan9"><tspan
         style="font-style:italic;font-variant:normal;font-weight:400;font-stretch:normal;font-family:Arial;-inkscape-font-specification:'Arial Italic'"
         id="tspan7">N</tspan><tspan
         style="font-size:65%;text-align:center;baseline-shift:sub;text-anchor:middle"
         id="tspan8">C</tspan></tspan></text>
  <text
     xml:space="preserve"
     x="48.86"
     y="10.07"
     style="font-size:9.87777px;font-family:Arial;-inkscape-font-specification:Arial;text-align:center;writing-mode:lr-tb;direction:ltr;text-anchor:middle;fill:#000;fill-opacity:1;stroke:none;stroke-width:.793999;stroke-linecap:round;stroke-linejoin:round;stroke-dasharray:none"
     id="text12"><tspan
       x="48.86"
       y="10.07"
       style="text-align:center;text-anchor:middle;fill:#000;fill-opacity:1;stroke:none;stroke-width:.794"
       id="tspan12"><tspan
         style="font-style:italic;font-variant:normal;font-weight:400;font-stretch:normal;font-family:Arial;-inkscape-font-specification:&quot;Arial Italic&quot;"
         id="tspan10">N</tspan><tspan
         style="font-size:65%;baseline-shift:sub"
         id="tspan11">D</tspan></tspan></text>
  <path
     d="M-64.18 37.08v-.9q.48-.47.73-.48c.16 0 .31.18.54.18.22 0 .38-.15.38-.36 0-.27-.21-.46-.58-.46-.44 0-.75.2-1.13.6v-.4q0-.12-.15-.12h-.6c-.22 0-.33.07-.33.3s.1.3.34.3h.12v1.34h-.21c-.23 0-.35.07-.35.3s.12.3.35.3h1.54c.23 0 .34-.07.34-.3s-.1-.3-.34-.3zm5.02-.67c0-.76-.58-1.33-1.5-1.33-.91 0-1.5.57-1.5 1.33s.59 1.34 1.5 1.34c.92 0 1.5-.57 1.5-1.34m-1.5.76c-.43 0-.74-.32-.74-.76s.3-.75.74-.75.74.31.74.75c0 .43-.3.76-.74.76m2.27-1.28h.26v.77c0 .34 0 .59.17.78q.25.3.84.3c.68 0 1.26-.3 1.26-.55 0-.2-.13-.32-.28-.32-.24 0-.5.25-.9.25-.33 0-.41-.16-.41-.52v-.7h.84q.35.02.35-.31c0-.23-.12-.3-.35-.3h-.84v-.64q.02-.36-.35-.35c-.21 0-.33.12-.33.23v.76h-.26c-.23 0-.34.07-.34.3s.11.3.34.3m5.65.17c0-.68-.26-1-1.1-1-.76 0-1.2.2-1.2.49 0 .16.1.28.3.28.25 0 .51-.27.86-.27q.47 0 .48.5v.05a4 4 0 0 0-.62-.05c-.8 0-1.25.32-1.25.87 0 .51.36.82.95.82q.54 0 1-.3c.07.18.15.23.32.23h.26q.36.02.35-.3 0-.3-.3-.3h-.05zm-.66.91q-.32.23-.7.23-.41-.01-.42-.3.02-.4.65-.41.21 0 .47.06zm1.8-1.08h.27v.77c0 .34 0 .59.17.78q.24.3.83.3c.69 0 1.26-.3 1.26-.55 0-.2-.13-.32-.28-.32-.23 0-.5.25-.9.25-.32 0-.4-.16-.4-.52v-.7h.84q.35.02.35-.31c0-.23-.12-.3-.35-.3h-.84v-.64q.02-.36-.35-.35c-.21 0-.33.12-.33.23v.76h-.26c-.23 0-.35.07-.35.3s.12.3.35.3m4.18-1.47c0 .28.06.33.34.33.3 0 .34-.06.34-.41s-.03-.45-.34-.45c-.29 0-.34.1-.34.53m.58.72h-.83c-.23 0-.34.07-.34.3s.11.3.34.3h.31v1.34h-.6c-.22 0-.34.07-.34.3s.12.3.35.3h1.86c.23 0 .35-.07.35-.3s-.12-.3-.35-.3h-.6v-1.82q0-.12-.15-.12m4.67 1.27c0-.76-.58-1.33-1.5-1.33-.91 0-1.5.57-1.5 1.33s.59 1.34 1.5 1.34c.92 0 1.5-.57 1.5-1.34m-1.5.76c-.43 0-.74-.32-.74-.76s.3-.75.74-.75.74.31.74.75c0 .43-.3.76-.74.76m4.56-.1v-.92q.01-1.08-.88-1.08-.52 0-.78.4v-.21q0-.12-.15-.12h-.47c-.23 0-.35.07-.35.3q0 .3.3.3h.05v1.33h-.04q-.3 0-.3.3-.01.33.34.31h.68q.35.02.34-.3 0-.3-.3-.3h-.04v-.8c0-.4.23-.61.52-.61.32 0 .4.2.4.6v.8h-.03q-.32 0-.32.3 0 .33.35.31h.68q.34.02.34-.3 0-.3-.3-.3zm3.94 1.78h-3.4q-.11 0-.12.15v.26q0 .17.12.17h3.4q.11-.01.13-.17V39q0-.15-.13-.15m2.82-2.8c0-.67-.27-.99-1.1-.99-.76 0-1.2.2-1.2.49 0 .16.1.28.3.28.25 0 .51-.27.86-.27q.47 0 .47.5v.05a4 4 0 0 0-.61-.05c-.8 0-1.25.32-1.25.87 0 .51.36.82.95.82q.54 0 1-.3c.07.18.15.23.32.23h.26q.36.02.35-.3 0-.3-.3-.3h-.05zm-.67.92q-.31.23-.68.23-.43-.02-.43-.3.01-.4.65-.41.2 0 .46.06zm4.1.1v-.92q.01-1.08-.87-1.08-.52 0-.78.4v-.21q0-.12-.16-.12h-.47c-.23 0-.34.07-.34.3q0 .3.3.3h.04v1.33h-.03q-.31 0-.31.3-.01.33.34.31h.68q.35.02.35-.3 0-.3-.31-.3h-.04v-.8c0-.4.24-.61.52-.61.32 0 .4.2.4.6v.8h-.03q-.31 0-.32.3 0 .33.35.31h.68q.36.02.35-.3 0-.3-.31-.3zm2.12-.04c-.36 0-.62-.28-.62-.68s.26-.7.62-.7c.37 0 .63.29.63.7s-.26.68-.63.68m1.3.6v-1.89h.04q.3 0 .3-.3c0-.23-.11-.3-.34-.3h-.45q-.16 0-.16.11v.14a1 1 0 0 0-.76-.32c-.77 0-1.31.54-1.31 1.28 0 .72.5 1.24 1.25 1.24q.41 0 .78-.22v.12c0 .53-.18.68-.69.68-.3 0-.5-.05-.6-.05-.2 0-.32.13-.32.3q0 .38.87.37c.97 0 1.39-.35 1.39-1.15m1.88-2.94v2.39h-.6c-.23 0-.34.07-.34.3s.11.3.34.3h1.87c.23 0 .35-.07.35-.3s-.12-.3-.35-.3h-.6V34.2q0-.12-.15-.12h-.83c-.23 0-.35.07-.35.3s.12.3.35.3zm2.99 1.88h1.78c.28 0 .4-.04.4-.28 0-.64-.55-1.21-1.38-1.21-.92 0-1.5.57-1.5 1.33s.6 1.34 1.5 1.34c.8 0 1.33-.31 1.33-.63q-.01-.26-.25-.27c-.2 0-.47.33-1.06.33q-.69 0-.82-.6m0-.43q.14-.54.74-.53c.4 0 .68.19.74.53z"
     aria-label="rotation_angle"
     style="font-weight:700;font-size:5.64444px;font-family:&quot;Courier 10 Pitch&quot;;-inkscape-font-specification:&quot;Courier 10 Pitch Bold&quot;;text-align:center;text-anchor:middle;stroke-width:.794;stroke-linecap:round;stroke-linejoin:round"
     transform="rotate(-82.5)"
     id="path12" />
  <circle
     cx="23.99"
     cy="97.02"
     r="1.52"
     style="fill:#000;fill-opacity:1;stroke:none;stroke-width:.793999;stroke-linecap:round;stroke-linejoin:round;stroke-dasharray:none"
     id="circle12" />
  <g
     style="font-size:5.64444px;font-family:&quot;Courier 10 Pitch&quot;;-inkscape-font-specification:&quot;Courier 10 Pitch&quot;;text-align:center;text-anchor:middle;stroke-width:.793999;stroke-linecap:round;stroke-linejoin:round"
     id="g13">
    <path
       d="M29.82 93.27c0-.76-.59-1.34-1.5-1.34-.92 0-1.51.58-1.51 1.34s.6 1.34 1.5 1.34c.92 0 1.5-.58 1.5-1.34m-1.5.75c-.43 0-.74-.32-.74-.76 0-.43.3-.75.74-.75s.73.32.73.75c0 .44-.3.76-.73.76m3.27-.09v-.89q.48-.48.73-.48c.16 0 .3.18.53.18s.4-.16.4-.37c0-.26-.22-.45-.6-.45-.43 0-.74.2-1.12.6v-.4q0-.12-.15-.13h-.6c-.22 0-.34.07-.34.3s.12.3.35.3h.12v1.34h-.21c-.23 0-.35.07-.35.3s.12.3.35.3h1.54c.23 0 .34-.07.34-.3s-.1-.3-.34-.3zm3.17-2.65c0 .28.06.33.34.33.3 0 .33-.06.33-.42 0-.34-.02-.45-.33-.45-.3 0-.34.1-.34.54m.58.71h-.83c-.23 0-.35.07-.35.3s.12.3.35.3h.3v1.34h-.58c-.23 0-.35.07-.35.3s.12.3.35.3h1.86c.23 0 .35-.07.35-.3s-.12-.3-.35-.3h-.6v-1.82q0-.11-.15-.12m3.05 1.9c-.36 0-.62-.29-.62-.69s.26-.7.62-.7.63.3.63.7-.27.69-.63.69m1.3.6v-1.9h.04q.3 0 .3-.3c0-.23-.11-.3-.35-.3h-.45q-.15 0-.15.12v.14a1 1 0 0 0-.77-.33c-.76 0-1.3.55-1.3 1.29 0 .72.5 1.23 1.25 1.23q.41 0 .78-.22v.13c0 .52-.18.68-.69.68-.3 0-.5-.05-.6-.05q-.31.02-.32.3 0 .37.87.36c.97 0 1.38-.35 1.38-1.15m1.86-3.21c0 .28.07.33.34.33.31 0 .34-.06.34-.42 0-.34-.03-.45-.33-.45s-.35.1-.35.54m.58.71h-.83c-.23 0-.34.07-.34.3s.11.3.34.3h.32v1.34H41c-.23 0-.35.07-.35.3s.12.3.35.3h1.87c.23 0 .35-.07.35-.3s-.12-.3-.35-.3h-.6v-1.82q0-.11-.16-.12m4.33 1.94V93q.01-1.09-.87-1.09-.52 0-.78.4v-.2q0-.12-.16-.13h-.47q-.34-.02-.34.3 0 .3.3.3h.04v1.34h-.03q-.3 0-.31.3c0 .23.1.3.34.3h.69c.23 0 .34-.07.34-.3q0-.3-.31-.3h-.03v-.8c0-.39.23-.6.52-.6.31 0 .4.2.4.6v.8h-.04q-.3 0-.31.3c0 .23.1.3.35.3h.67c.24 0 .35-.07.35-.3q0-.3-.31-.3zm3.94 1.78H47q-.1 0-.12.14v.27q.01.16.13.16h3.4q.1-.01.12-.16v-.27q0-.14-.13-.14m1.36-4.17v2.4h-.6c-.23 0-.34.06-.34.3q0 .31.35.3h1.86q.36.02.35-.3c0-.24-.11-.3-.35-.3h-.59v-2.89q0-.11-.16-.12h-.83c-.23 0-.35.07-.35.3 0 .24.12.31.35.31zM57 93.27c0-.76-.59-1.34-1.5-1.34s-1.5.58-1.5 1.34.59 1.34 1.5 1.34 1.5-.58 1.5-1.34m-1.5.75c-.43 0-.74-.32-.74-.76 0-.43.3-.75.74-.75s.73.32.73.75c0 .44-.3.76-.73.76m4.56-.1v-.91q.01-1.09-.88-1.09-.52 0-.78.4v-.2q0-.12-.16-.13h-.46q-.36-.01-.35.3 0 .3.3.3h.05v1.34h-.04q-.3 0-.3.3c0 .23.1.3.34.3h.68c.24 0 .34-.07.34-.3q0-.3-.3-.3h-.04v-.8c0-.39.23-.6.52-.6.31 0 .4.2.4.6v.8h-.04q-.3 0-.31.3c0 .23.11.3.35.3h.68c.23 0 .34-.07.34-.3q0-.3-.31-.3zm1.73.65 1.62-3.46q.07-.14.08-.26c0-.17-.18-.27-.32-.27-.13 0-.2.1-.3.29l-1.6 3.45a1 1 0 0 0-.09.27c0 .17.18.28.33.28q.17 0 .28-.3m3.56-3.03v2.4h-.6c-.22 0-.34.06-.34.3q0 .32.35.3h1.87q.34.02.34-.3c0-.24-.11-.3-.34-.3h-.6v-2.89q0-.11-.16-.12h-.82c-.24 0-.35.07-.35.3 0 .24.11.31.35.31zm4.87 1.37c0-.67-.27-1-1.1-1-.77 0-1.21.2-1.21.5q0 .26.3.27c.26 0 .52-.27.87-.27q.46 0 .47.5v.06a4 4 0 0 0-.62-.06c-.8 0-1.24.32-1.24.87 0 .52.35.83.95.83q.53 0 1-.31c.06.19.14.24.32.24h.26q.35.02.35-.3 0-.3-.3-.3h-.05zm-.67.92q-.32.22-.69.22-.42-.02-.43-.3.01-.4.66-.4.2 0 .46.05zm1.81-1.08h.26v.77c0 .33 0 .58.17.78q.25.29.84.3c.68 0 1.25-.31 1.25-.56 0-.2-.13-.31-.27-.31-.24 0-.51.24-.9.24-.33 0-.41-.15-.41-.52v-.7h.84c.23 0 .35-.07.35-.3 0-.24-.12-.3-.35-.3h-.84v-.65q.02-.35-.35-.34c-.21 0-.33.12-.33.23v.75h-.26c-.23 0-.34.07-.34.3 0 .24.11.3.34.3m-34.75 7.58c0-.76-.58-1.33-1.5-1.33-.91 0-1.5.57-1.5 1.33s.59 1.34 1.5 1.34c.92 0 1.5-.57 1.5-1.34m-1.5.76c-.43 0-.74-.32-.74-.76s.3-.75.74-.75.74.31.74.75c0 .43-.3.76-.74.76m3.28-.09v-.9q.47-.47.73-.48c.15 0 .3.18.53.18s.39-.15.39-.36c0-.27-.21-.46-.59-.46-.43 0-.75.2-1.12.6v-.4q0-.12-.16-.12h-.59c-.23 0-.34.07-.34.3s.11.3.34.3h.12V101h-.2c-.24 0-.36.07-.36.3s.12.3.35.3h1.55c.23 0 .34-.07.34-.3s-.11-.3-.34-.3zm3.16-2.66c0 .28.07.33.34.33.31 0 .34-.06.34-.41s-.03-.45-.33-.45-.35.1-.35.53m.58.72h-.83c-.23 0-.34.07-.34.3s.11.3.34.3h.32V101h-.6c-.23 0-.35.07-.35.3s.12.3.35.3h1.87c.23 0 .35-.07.35-.3s-.12-.3-.35-.3h-.6v-1.82q0-.12-.16-.12m3.06 1.9c-.36 0-.63-.3-.63-.7s.27-.69.63-.69.62.29.62.7-.26.68-.62.68m1.3.6v-1.9h.04q.3 0 .3-.3c0-.23-.12-.3-.35-.3h-.45q-.16 0-.16.11v.14a1 1 0 0 0-.76-.32c-.76 0-1.31.54-1.31 1.28 0 .72.51 1.24 1.25 1.24q.41 0 .78-.22v.12c0 .53-.17.68-.68.68-.3 0-.5-.05-.61-.05-.2 0-.31.13-.31.3q0 .38.87.37c.97 0 1.38-.35 1.38-1.15m1.86-3.22c0 .28.06.33.34.33.3 0 .34-.06.34-.41s-.03-.45-.34-.45c-.29 0-.34.1-.34.53m.58.72h-.83c-.23 0-.34.07-.34.3s.1.3.34.3h.31V101h-.6c-.22 0-.34.07-.34.3s.12.3.35.3h1.86c.23 0 .35-.07.35-.3s-.12-.3-.35-.3h-.6v-1.82q0-.12-.15-.12m4.33 1.93v-.92q.01-1.08-.88-1.08-.52 0-.77.4v-.21q0-.12-.16-.12h-.47c-.23 0-.35.07-.35.3q0 .3.3.3h.05v1.33h-.03q-.32 0-.32.3 0 .33.35.31h.68q.36.02.35-.3 0-.3-.31-.3h-.04v-.8c0-.4.23-.61.52-.61.32 0 .4.2.4.6v.8h-.03q-.32 0-.32.3 0 .33.35.31h.68q.35.02.34-.3 0-.3-.3-.3zm3.94 1.78h-3.4q-.11 0-.12.15v.26q0 .17.12.17h3.4q.11-.01.13-.17v-.26q0-.15-.13-.15m2.74-1.78-.69-.7.58-.63h.1q.33 0 .33-.3.01-.31-.35-.3h-.58q-.28 0-.28.3 0 .25.18.25l-.32.35-.3-.35q.18 0 .18-.25 0-.3-.28-.3h-.66q-.36-.02-.35.3 0 .3.31.3h.1l.63.67-.65.66h-.06q-.3 0-.3.3 0 .33.35.31h.58q.28 0 .28-.3 0-.25-.17-.25h-.03l.34-.39.35.39h-.02q-.19 0-.18.25 0 .3.27.3h.67q.36.02.35-.3 0-.3-.32-.31zm1.85.65 1.62-3.46q.07-.15.08-.26c0-.18-.18-.28-.32-.28-.13 0-.2.1-.3.3l-1.6 3.45-.09.26c0 .18.18.28.33.28q.17 0 .28-.3m5.08-2.58h-.65c-.23 0-.35.07-.35.3q0 .3.31.3h.04l-.51 1.18-.5-1.18h.04q.3 0 .3-.3c0-.23-.11-.3-.34-.3h-.7c-.23 0-.35.07-.35.3q0 .3.3.3h.05l.83 1.88-.26.55h-.42q-.36-.02-.35.3c0 .24.11.31.35.31h1.2c.24 0 .35-.07.35-.3s-.11-.3-.35-.3h-.12l1.13-2.44h.05q.3 0 .3-.3c0-.23-.11-.3-.35-.3"
       aria-label="origin_lon/latorigin_x/y"
       style="font-weight:700;-inkscape-font-specification:&quot;Courier 10 Pitch Bold&quot;;stroke-width:.794"
       transform="rotate(15)"
       id="path13" />
  </g>
  <path
     d="M96.3 13.63h1.78c.3 0 .4-.04.4-.28 0-.64-.54-1.21-1.37-1.21-.92 0-1.5.57-1.5 1.34 0 .76.59 1.33 1.5 1.33.8 0 1.33-.31 1.33-.63q-.01-.25-.25-.27c-.2 0-.47.33-1.06.33q-.69 0-.82-.6m0-.43q.15-.53.74-.53.64.01.75.53zm3.98 2.04h-.35v-.75q.3.23.75.24c.72 0 1.27-.55 1.27-1.33 0-.72-.54-1.27-1.3-1.27q-.5 0-.8.38v-.2q0-.1-.15-.11h-.43c-.23 0-.34.07-.34.3q0 .3.3.3h.04v2.44h-.16c-.23 0-.34.07-.34.3s.1.3.34.3h1.17c.23 0 .34-.07.34-.3s-.1-.3-.34-.3m-.34-1.8c0-.43.27-.72.63-.72s.62.3.62.72-.27.71-.62.71c-.36 0-.63-.29-.63-.71m3.18 1.27q.4.11.82.1c.78 0 1.19-.32 1.19-.86s-.4-.7-1.1-.8c-.5-.08-.72-.06-.72-.3q0-.24.45-.26c.5 0 .66.4.93.4q.23-.01.24-.25v-.34q0-.28-.23-.28-.16 0-.27.13-.38-.12-.75-.12-1.07.02-1.09.82 0 .65.95.77c.6.09.86.09.86.35 0 .15-.15.27-.44.27q-.44 0-.72-.24c-.13-.12-.13-.28-.36-.28q-.29-.01-.28.33v.38c0 .19.04.3.22.3q.15 0 .3-.12m4.01-.61c-.36 0-.63-.3-.63-.7s.27-.69.63-.69.63.3.63.7-.27.69-.63.69m1.3.6v-1.9h.04q.3 0 .3-.3c0-.23-.11-.3-.35-.3h-.45q-.16 0-.16.11v.14a1 1 0 0 0-.76-.32c-.76 0-1.3.54-1.3 1.28 0 .73.5 1.24 1.25 1.24q.41 0 .78-.22v.12c0 .53-.18.69-.69.69-.3 0-.5-.05-.6-.05q-.31.01-.32.3 0 .37.87.36c.97 0 1.38-.35 1.38-1.15"
     aria-label="epsg"
     style="font-weight:700;font-size:5.64444px;font-family:&quot;Courier 10 Pitch&quot;;-inkscape-font-specification:&quot;Courier 10 Pitch Bold&quot;;text-align:center;text-anchor:middle;stroke-width:.794;stroke-linecap:round;stroke-linejoin:round"
     id="path14" />
  <g
     style="font-size:5.64444px;font-family:&quot;Courier 10 Pitch&quot;;-inkscape-font-specification:&quot;Courier 10 Pitch&quot;;text-align:center;text-anchor:middle;stroke-width:.793999;stroke-linecap:round;stroke-linejoin:round"
     id="g15">
    <path
       d="M116.47 49.4c0-.76-.6-1.34-1.5-1.34-.92 0-1.51.58-1.51 1.34s.59 1.34 1.5 1.34c.92 0 1.5-.58 1.5-1.34m-1.5.76c-.44 0-.75-.32-.75-.76s.3-.76.74-.76.74.32.74.76c0 .43-.3.76-.74.76m3.27-.1v-.88q.47-.5.73-.49c.15 0 .3.18.53.18s.4-.15.4-.37c0-.26-.22-.45-.6-.45-.43 0-.75.2-1.12.6v-.4q0-.12-.16-.12h-.58c-.24 0-.35.06-.35.3s.11.3.35.3h.11v1.34h-.2c-.24 0-.35.06-.35.3s.11.3.35.3h1.54c.23 0 .34-.07.34-.3 0-.24-.11-.3-.34-.3zm3.16-2.65c0 .28.07.33.34.33.31 0 .34-.06.34-.42 0-.34-.03-.44-.33-.44s-.35.09-.35.53m.59.72h-.83c-.24 0-.35.06-.35.3s.11.3.35.3h.3v1.34h-.59c-.23 0-.35.06-.35.3s.12.3.35.3h1.87c.23 0 .35-.07.35-.3 0-.24-.12-.3-.35-.3h-.6v-1.83q0-.1-.15-.11m3.05 1.9c-.36 0-.63-.3-.63-.7s.27-.7.63-.7.63.3.63.7-.27.7-.63.7m1.3.6v-1.9h.04q.3 0 .3-.3c0-.24-.12-.3-.35-.3h-.45q-.16 0-.16.1v.15a1 1 0 0 0-.76-.32c-.76 0-1.3.54-1.3 1.28 0 .72.5 1.23 1.24 1.23q.42 0 .78-.22v.13c0 .52-.17.68-.68.68-.3 0-.5-.05-.6-.05-.2 0-.32.13-.32.3q0 .37.87.37c.97 0 1.38-.35 1.38-1.15m1.86-3.22c0 .28.06.33.34.33.3 0 .34-.06.34-.42 0-.34-.03-.44-.34-.44-.29 0-.34.09-.34.53m.58.72h-.83c-.23 0-.34.06-.34.3s.11.3.34.3h.31v1.34h-.59c-.23 0-.35.06-.35.3s.12.3.35.3h1.86c.23 0 .35-.07.35-.3 0-.24-.12-.3-.35-.3h-.59v-1.83q0-.1-.16-.11m4.33 1.93v-.92q0-1.08-.87-1.08-.52 0-.78.4v-.22q0-.1-.16-.11h-.47c-.23 0-.34.07-.34.3q0 .3.3.3h.04v1.33h-.03q-.31 0-.31.3-.01.33.34.31h.68q.36.02.35-.3 0-.3-.31-.3h-.04v-.8c0-.4.23-.61.52-.61.32 0 .4.2.4.6v.8h-.03q-.31 0-.32.3 0 .33.35.31h.68q.35.02.34-.3 0-.3-.3-.3zm3.94 1.78h-3.4q-.11 0-.12.15v.26q0 .16.12.17h3.4q.11-.01.13-.17V52q0-.15-.13-.15m1.36-4.17v2.4h-.6c-.23 0-.34.06-.34.3s.11.3.34.3h1.87c.23 0 .35-.07.35-.3 0-.24-.12-.3-.35-.3h-.6v-2.89q0-.11-.16-.12h-.82q-.35-.02-.35.3c0 .24.12.31.35.31zm5.24 1.73c0-.76-.59-1.34-1.5-1.34-.92 0-1.51.58-1.51 1.34s.6 1.34 1.5 1.34c.92 0 1.5-.58 1.5-1.34m-1.5.76c-.43 0-.74-.32-.74-.76s.3-.76.74-.76.73.32.73.76c0 .43-.3.76-.73.76m4.55-.1v-.92q.02-1.08-.87-1.08-.52 0-.78.4v-.22q0-.1-.16-.11h-.47c-.23 0-.34.07-.34.3q0 .3.3.3h.04v1.33h-.03q-.31 0-.31.3-.01.33.34.31h.69q.34.02.34-.3 0-.3-.31-.3h-.03v-.8c0-.4.23-.61.51-.61.32 0 .4.2.4.6v.8h.02q-.3 0-.31.3-.01.33.35.31h.67q.36.02.35-.3 0-.3-.31-.3zm1.74.64 1.62-3.46q.06-.15.07-.25c0-.18-.18-.28-.32-.28q-.17 0-.29.3l-1.61 3.45-.08.26c0 .18.18.28.32.28.13 0 .2-.1.3-.3m3.56-3.03v2.4h-.6c-.23 0-.34.06-.34.3s.11.3.34.3h1.87c.23 0 .35-.07.35-.3 0-.24-.12-.3-.35-.3h-.59v-2.89q0-.11-.16-.12h-.83q-.35-.02-.35.3c0 .24.12.31.35.31zm4.86 1.38c0-.68-.26-1-1.1-1-.76 0-1.2.2-1.2.49q0 .26.3.27c.25 0 .51-.27.86-.27q.47 0 .48.51v.05a4 4 0 0 0-.62-.05c-.8 0-1.25.32-1.25.86 0 .52.36.83.95.83q.54 0 1-.31c.07.19.15.24.32.24h.26q.35.02.35-.3 0-.3-.3-.3h-.05zm-.66.91q-.32.23-.7.23-.41-.02-.42-.3.02-.41.65-.42.21 0 .47.07zm1.8-1.08h.27v.77c0 .33 0 .59.17.78q.24.28.83.3c.69 0 1.26-.3 1.26-.56 0-.19-.13-.31-.28-.31-.23 0-.5.25-.9.25-.32 0-.4-.16-.4-.52v-.7h.84q.35.02.35-.31c0-.23-.12-.3-.35-.3h-.84v-.65q.02-.34-.35-.34c-.21 0-.33.12-.33.23v.76H158c-.23 0-.35.07-.35.3s.12.3.35.3m-34.74 7.57c0-.77-.59-1.34-1.5-1.34s-1.5.57-1.5 1.34c0 .76.59 1.33 1.5 1.33s1.5-.57 1.5-1.33m-1.5.75c-.43 0-.74-.32-.74-.76 0-.43.3-.75.74-.75s.73.32.73.75c0 .44-.3.76-.73.76m3.27-.09v-.89q.47-.48.74-.48c.15 0 .3.18.53.18.22 0 .39-.16.39-.37 0-.27-.22-.45-.59-.45-.43 0-.75.2-1.12.6v-.41q0-.11-.16-.12h-.59c-.23 0-.34.07-.34.3s.11.3.34.3h.12v1.34h-.2c-.24 0-.36.07-.36.3s.12.3.35.3h1.54c.23 0 .35-.07.35-.3s-.12-.3-.35-.3zm3.17-2.66c0 .29.06.34.34.34.3 0 .34-.07.34-.42s-.03-.45-.34-.45c-.29 0-.34.1-.34.53m.58.72h-.83c-.23 0-.34.07-.34.3s.11.3.34.3h.31v1.34h-.59c-.23 0-.35.07-.35.3s.12.3.35.3h1.86c.23 0 .35-.07.35-.3s-.12-.3-.35-.3h-.59V55.3q0-.11-.16-.12m3.06 1.9c-.37 0-.63-.29-.63-.7s.26-.69.63-.69c.36 0 .62.3.62.7s-.26.69-.62.69m1.29.6v-1.9h.04q.3 0 .3-.3c0-.23-.11-.3-.34-.3h-.45q-.16 0-.16.11v.14a1 1 0 0 0-.76-.32c-.77 0-1.31.54-1.31 1.28 0 .73.51 1.24 1.25 1.24q.41 0 .78-.22v.12c0 .53-.18.69-.68.69-.3 0-.5-.05-.61-.05q-.3.02-.31.3-.02.37.87.36c.97 0 1.38-.35 1.38-1.15m1.87-3.22c0 .29.06.34.33.34.32 0 .34-.07.34-.42s-.02-.45-.33-.45c-.3 0-.34.1-.34.53m.58.72h-.83c-.23 0-.35.07-.35.3s.12.3.35.3h.3v1.34h-.58c-.24 0-.35.07-.35.3s.11.3.35.3h1.86c.23 0 .35-.07.35-.3s-.12-.3-.35-.3h-.6V55.3q0-.11-.15-.12m4.33 1.94v-.92q.01-1.1-.88-1.09-.52 0-.78.4v-.21q0-.11-.16-.12h-.46c-.24 0-.35.07-.35.3q0 .3.3.3h.05v1.34h-.04q-.3 0-.3.3c0 .23.1.3.34.3h.68c.24 0 .34-.07.34-.3q0-.3-.3-.3h-.04v-.8c0-.39.23-.6.52-.6.31 0 .4.2.4.6v.8h-.03q-.32 0-.32.3c0 .23.11.3.35.3h.68c.23 0 .34-.07.34-.3q0-.3-.3-.3zm3.94 1.77h-3.4q-.12 0-.13.15v.27q.01.15.13.16h3.4q.11-.01.13-.16v-.27q0-.15-.13-.15m2.74-1.77-.69-.7.58-.64.1.01q.33 0 .33-.3c0-.23-.11-.3-.35-.3h-.59q-.27 0-.27.29 0 .25.17.25l-.31.35-.3-.35q.18 0 .18-.25 0-.3-.28-.3h-.66q-.35-.02-.35.3 0 .3.31.31h.1l.62.67-.64.66h-.07q-.3 0-.29.3c0 .23.1.3.34.3h.6q.27 0 .27-.3 0-.24-.18-.25h-.02l.34-.39.35.4h-.02q-.19 0-.18.25 0 .3.27.3h.67q.35.02.35-.3t-.32-.32zm1.85.64 1.62-3.46q.06-.14.07-.26c0-.17-.18-.28-.32-.28q-.17 0-.29.3l-1.61 3.45-.08.27c0 .17.18.27.32.27.13 0 .2-.1.3-.29m5.08-2.58h-.65c-.23 0-.35.07-.35.3q0 .3.3.3h.05l-.52 1.18-.5-1.18h.05q.3 0 .3-.3c0-.23-.11-.3-.34-.3h-.7c-.24 0-.35.07-.35.3q0 .3.3.3h.05l.83 1.88-.26.56h-.43c-.23 0-.35.07-.35.3s.12.3.35.3h1.21c.23 0 .35-.07.35-.3s-.12-.3-.35-.3h-.12l1.13-2.44h.05q.3 0 .3-.3c0-.23-.12-.3-.35-.3m-38.91 6.6v2.4h-.6c-.22 0-.34.07-.34.3s.12.3.35.3h1.87c.23 0 .34-.07.34-.3s-.11-.3-.34-.3h-.6v-2.89q0-.1-.16-.11h-.83c-.23 0-.35.07-.35.3s.12.3.35.3zm5.24 1.73c0-.76-.58-1.34-1.5-1.34-.91 0-1.5.58-1.5 1.34s.59 1.34 1.5 1.34c.92 0 1.5-.58 1.5-1.34m-1.5.76c-.43 0-.74-.32-.74-.76s.3-.75.74-.75.74.31.74.75c0 .43-.3.76-.74.76m3.38-.76.32 1.07q.1.28.43.27.37.02.42-.27l.35-1.74h.04q.3 0 .3-.3c0-.24-.11-.3-.34-.3h-.65c-.23 0-.35.06-.35.3q0 .3.3.3h.05l-.21 1.36-.3-1.05c-.06-.17-.1-.28-.34-.28-.23 0-.29.1-.34.28l-.29 1.05-.22-1.36h.05q.3 0 .3-.3c0-.24-.12-.3-.35-.3h-.65c-.23 0-.35.06-.35.3q0 .3.3.3h.05l.35 1.74q.06.28.41.27.35 0 .44-.27zm2.67.16h1.78c.28 0 .4-.04.4-.28 0-.65-.55-1.22-1.38-1.22-.92 0-1.5.58-1.5 1.34s.59 1.34 1.5 1.34c.8 0 1.33-.32 1.33-.63q-.01-.26-.25-.27c-.2 0-.47.33-1.06.33q-.69 0-.82-.61m0-.43q.14-.54.74-.54c.4 0 .68.2.74.54zm4.02.94v-.9q.47-.48.74-.48c.15 0 .3.18.53.18.22 0 .39-.15.39-.37 0-.26-.22-.45-.6-.45-.43 0-.74.2-1.11.6v-.4q0-.12-.16-.12h-.59c-.23 0-.34.06-.34.3s.1.3.34.3h.12v1.34h-.21c-.23 0-.35.07-.35.3s.12.3.35.3h1.54c.23 0 .34-.07.34-.3s-.1-.3-.34-.3zm5.22 1.77h-3.4q-.1 0-.12.15v.26q.02.17.12.17h3.4q.11-.01.13-.17v-.26q0-.15-.13-.15m1.36-4.17v2.4h-.6c-.23 0-.34.07-.34.3s.11.3.34.3h1.87c.23 0 .35-.07.35-.3s-.12-.3-.35-.3h-.59v-2.89q0-.1-.16-.11h-.83c-.23 0-.35.07-.35.3s.12.3.35.3zm2.99 1.89h1.78c.28 0 .4-.04.4-.28 0-.65-.54-1.22-1.38-1.22-.91 0-1.5.58-1.5 1.34s.6 1.34 1.5 1.34c.8 0 1.33-.32 1.33-.63q-.01-.26-.25-.27c-.2 0-.46.33-1.06.33q-.68 0-.82-.61m0-.43q.15-.54.74-.54.63.02.74.54zm3.65-.32v1.26h-.3c-.24 0-.35.07-.35.3s.11.3.35.3h1.52c.23 0 .35-.07.35-.3s-.12-.3-.35-.3h-.55v-1.26h.6c.23 0 .35-.07.35-.3 0-.24-.12-.3-.35-.3h-.6v-.1c0-.37.11-.51.47-.51.14 0 .3.05.48.05q.28-.02.28-.26 0-.35-.68-.34c-.87 0-1.23.26-1.23 1v.16h-.3c-.23 0-.34.06-.34.3s.11.3.35.3zm2.77.07h.26v.77c0 .33 0 .59.17.78q.23.3.83.3c.68 0 1.26-.3 1.26-.55 0-.2-.13-.32-.28-.32-.23 0-.5.25-.9.25-.32 0-.4-.16-.4-.52V63h.83q.35.02.35-.31c0-.23-.11-.3-.35-.3h-.84v-.64c0-.24-.08-.35-.34-.35-.22 0-.33.12-.33.23v.76h-.26c-.23 0-.35.07-.35.3s.12.3.35.3m6.22 2.96h-3.4q-.1 0-.12.15v.26q.01.17.12.17h3.4q.11-.01.13-.17v-.26q0-.15-.13-.15m2.75-1.78-.7-.7.58-.63h.11q.32 0 .32-.3.01-.31-.34-.3h-.59q-.28 0-.28.3 0 .24.18.25l-.32.34-.3-.34q.19 0 .18-.25 0-.3-.27-.3h-.67q-.35-.02-.35.3 0 .3.32.3h.09l.63.67-.65.66h-.06q-.3 0-.3.3 0 .33.35.31h.59q.27 0 .27-.3 0-.25-.17-.25h-.02l.33-.4.35.4h-.02q-.18 0-.18.25 0 .3.28.3h.66q.36.02.35-.3 0-.3-.31-.31zm1.85.65 1.61-3.46q.08-.15.08-.26c0-.18-.18-.28-.32-.28-.13 0-.2.1-.29.3l-1.61 3.45-.08.26c0 .18.18.28.32.28q.17 0 .29-.3m5.08-2.58h-.65c-.23 0-.35.06-.35.3q0 .3.3.3h.05l-.52 1.17-.5-1.17h.05q.3 0 .3-.3c0-.24-.12-.3-.35-.3h-.7c-.23 0-.35.06-.35.3q0 .3.3.3h.05l.84 1.88-.26.55h-.43q-.35-.02-.35.3c0 .24.12.31.35.31h1.2c.24 0 .36-.07.36-.3s-.12-.3-.35-.3h-.13l1.14-2.44h.04q.3 0 .3-.3c0-.24-.11-.3-.34-.3"
       aria-label="origin_lon/latorigin_x/ylower_left_x/y"
       style="font-weight:700;-inkscape-font-specification:&quot;Courier 10 Pitch Bold&quot;;stroke-width:.794"
       transform="rotate(15)"
       id="path15" />
  </g>
  <circle
     cx="36.36"
     cy="90.63"
     r="1.52"
     style="fill:none;fill-opacity:1;stroke:#000;stroke-width:.793999;stroke-linecap:round;stroke-linejoin:round;stroke-dasharray:none;stroke-opacity:1"
     id="circle15" />
  <circle
     cx="53.6"
     cy="79.56"
     r="1.52"
     style="fill:none;fill-opacity:1;stroke:#000;stroke-width:.793999;stroke-linecap:round;stroke-linejoin:round;stroke-dasharray:none;stroke-opacity:1"
     id="circle16" />
  <path
     d="M58.58 32.79h49.32v45.34H58.58z"
     style="fill:#000;fill-opacity:.3;stroke:#000;stroke-width:.793998;stroke-linecap:round;stroke-linejoin:round;stroke-dasharray:none;stroke-opacity:1"
     transform="rotate(15)"
     id="path16" />
  <path
     d="M72.37 38.07h16.19v24.91H72.37z"
     style="fill:#000;fill-opacity:.3;stroke:#000;stroke-width:.793999;stroke-linecap:round;stroke-linejoin:round;stroke-dasharray:none;stroke-opacity:1"
     transform="rotate(15)"
     id="path17" />
  <circle
     cx="120.2"
     cy="78.14"
     r="1.52"
     style="fill:none;fill-opacity:.3;stroke:#000;stroke-width:.793999;stroke-linecap:round;stroke-linejoin:round;stroke-dasharray:none;stroke-opacity:1"
     id="circle17" />
  <path
     d="M136.32 19.2h30.12v25.17h-30.12z"
     style="fill:#000;fill-opacity:.3;stroke:#000;stroke-width:.793999;stroke-linecap:round;stroke-linejoin:round;stroke-dasharray:none;stroke-opacity:1"
     transform="rotate(15)"
     id="path18" />
  <path
     d="M108.16 9.91V9q.01-1.08-.88-1.08-.52 0-.78.4V8.1q0-.11-.16-.12h-.46q-.36-.02-.35.3 0 .3.3.3h.05v1.34h-.04q-.3 0-.3.3-.01.33.34.31h.68q.35.01.34-.3 0-.3-.3-.3h-.04v-.8c0-.4.23-.61.52-.61.31 0 .4.2.4.6v.8h-.04q-.3 0-.31.3 0 .33.35.31h.68q.34.01.34-.3 0-.3-.31-.3zm3.28 0-.69-.7.58-.63h.1q.33 0 .33-.3c0-.23-.11-.3-.35-.3h-.58q-.29 0-.28.3 0 .25.17.25l-.31.34-.3-.34q.18 0 .18-.26 0-.3-.28-.3h-.66q-.35-.02-.35.3 0 .31.31.31h.1l.63.67-.65.66h-.07q-.3 0-.29.3-.01.33.35.31h.58q.28 0 .28-.3 0-.25-.18-.25h-.02l.34-.4.35.4h-.02q-.19 0-.18.25 0 .3.27.3h.67q.36.02.35-.3 0-.31-.32-.32z"
     aria-label="nx"
     style="font-weight:700;font-size:5.64444px;font-family:&quot;Courier 10 Pitch&quot;;-inkscape-font-specification:&quot;Courier 10 Pitch Bold&quot;;text-align:center;text-anchor:middle;stroke-width:.794;stroke-linecap:round;stroke-linejoin:round"
     transform="rotate(15)"
     id="path19" />
  <path
     d="M-53.5 179.99v-.92q.01-1.08-.88-1.08-.52 0-.78.4v-.22q0-.11-.15-.12h-.47q-.35-.01-.35.3 0 .3.3.3h.05V180h-.04q-.3 0-.3.3c0 .23.1.3.34.3h.68c.24 0 .34-.07.34-.3q0-.3-.3-.3h-.04v-.8c0-.39.23-.6.52-.6.32 0 .4.2.4.6v.8h-.03q-.32 0-.32.3c0 .23.11.3.35.3h.68c.24 0 .34-.07.34-.3q0-.3-.3-.3zm3.42-1.94h-.65c-.23 0-.35.07-.35.3q0 .3.3.3h.05l-.52 1.18-.5-1.17h.05q.3 0 .3-.3c0-.24-.12-.3-.35-.3h-.7c-.23 0-.35.06-.35.3q0 .3.3.3h.05l.84 1.88-.26.55h-.43c-.23 0-.35.07-.35.3 0 .24.12.31.35.31h1.2c.24 0 .36-.07.36-.3 0-.24-.12-.31-.35-.31h-.13l1.14-2.43h.04q.3 0 .3-.3c0-.24-.11-.3-.34-.3"
     aria-label="ny"
     style="font-weight:700;font-size:5.64444px;font-family:&quot;Courier 10 Pitch&quot;;-inkscape-font-specification:&quot;Courier 10 Pitch Bold&quot;;text-align:center;text-anchor:middle;stroke-width:.794;stroke-linecap:round;stroke-linejoin:round"
     transform="rotate(-75)"
     id="path20" />
  <g
     style="font-weight:700;font-size:5.64444px;font-family:&quot;Courier 10 Pitch&quot;;-inkscape-font-specification:&quot;Courier 10 Pitch Bold&quot;;text-align:center;text-anchor:middle;stroke-width:.793999;stroke-linecap:round;stroke-linejoin:round"
     id="g21">
    <path
       d="M53 18.6h-.34v-.76q.3.24.75.24c.72 0 1.27-.55 1.27-1.32 0-.72-.54-1.27-1.3-1.27q-.51 0-.8.38v-.2q0-.1-.15-.11H52c-.23 0-.34.06-.34.3q0 .3.3.3H52v2.43h-.16q-.35-.02-.35.3c0 .24.12.3.35.3H53c.23 0 .34-.06.34-.3q0-.32-.34-.3m-.33-1.8c0-.43.26-.72.62-.72.37 0 .63.29.63.71 0 .43-.27.72-.63.72s-.62-.3-.62-.72m3.55-1.96c0 .28.07.33.34.33.31 0 .34-.06.34-.42 0-.34-.03-.44-.33-.44s-.35.09-.35.53m.59.72h-.83c-.24 0-.35.06-.35.3s.11.3.35.3h.3v1.34h-.59c-.23 0-.35.07-.35.3s.12.3.35.3h1.87c.23 0 .35-.07.35-.3s-.12-.3-.35-.3h-.6v-1.83q0-.1-.15-.11m4.21 1.93-.69-.7.58-.63h.1q.33 0 .33-.3.01-.32-.35-.3h-.58q-.28 0-.28.3 0 .24.18.25l-.32.34-.3-.34q.18 0 .18-.25 0-.3-.28-.3h-.66q-.36-.02-.35.3 0 .3.31.3h.1l.63.67-.65.66h-.06q-.3 0-.3.3-.01.33.35.31h.58q.28 0 .28-.3 0-.25-.18-.25h-.02l.34-.4.35.4h-.02q-.19 0-.18.25 0 .3.27.3h.67q.35.02.35-.3 0-.3-.32-.31zm1.6-.5h1.78c.3 0 .4-.04.4-.28 0-.65-.54-1.22-1.37-1.22-.92 0-1.5.58-1.5 1.34s.59 1.34 1.5 1.34c.8 0 1.33-.32 1.33-.63q-.01-.26-.25-.27c-.2 0-.47.33-1.06.33q-.69 0-.83-.61m0-.43q.15-.54.74-.54.65.02.75.54zm3.8-1.46v2.4h-.58c-.23 0-.35.07-.35.3s.12.3.35.3h1.86c.24 0 .35-.07.35-.3s-.11-.3-.35-.3h-.59V14.6q0-.11-.16-.12h-.83q-.35-.02-.35.31c0 .23.12.3.35.3zm5.45 4.17h-3.4q-.11 0-.12.15v.26q0 .16.12.17h3.4q.11-.01.13-.17v-.26q0-.15-.13-.15m.97-1.2q.4.1.82.1c.77 0 1.19-.33 1.19-.86 0-.55-.4-.71-1.1-.81-.5-.07-.72-.05-.72-.29q0-.25.45-.26c.5 0 .65.4.93.4q.23-.01.24-.26v-.34q0-.27-.23-.28-.16 0-.27.14-.38-.12-.76-.12c-.7 0-1.08.3-1.08.81q0 .65.95.78c.6.08.86.08.86.34 0 .15-.15.28-.44.28q-.44 0-.72-.24c-.14-.13-.13-.28-.37-.28q-.28-.01-.27.33v.37c0 .2.04.3.22.3q.15 0 .3-.11m3.77-3.23c0 .28.06.33.34.33.31 0 .34-.06.34-.42 0-.34-.03-.44-.33-.44s-.35.09-.35.53m.58.72h-.83c-.23 0-.34.06-.34.3s.11.3.34.3h.31v1.34h-.59c-.23 0-.35.07-.35.3s.12.3.35.3h1.86c.24 0 .35-.07.35-.3s-.11-.3-.35-.3h-.59v-1.83q0-.1-.16-.11m2.83 1.99 1.31-1.4q.14-.15.14-.32 0-.26-.33-.27H79.5c-.26 0-.31.02-.31.33v.35c0 .23.05.35.28.35q.28 0 .28-.35v-.13h.84l-1.34 1.41a.5.5 0 0 0-.13.3q0 .28.33.28h1.71c.27 0 .32-.03.32-.34v-.4c0-.23-.05-.35-.28-.35-.21 0-.26.12-.27.35l-.02.19zm3-.56h1.77c.29 0 .4-.04.4-.28 0-.65-.54-1.22-1.38-1.22-.91 0-1.5.58-1.5 1.34s.6 1.34 1.5 1.34c.81 0 1.34-.32 1.34-.63q-.01-.26-.25-.27c-.2 0-.47.33-1.06.33q-.69 0-.83-.61m0-.43q.13-.54.73-.54c.41 0 .69.2.75.54zm-16.08 5.62h.36v.7a1.2 1.2 0 0 0-.75-.25c-.72 0-1.27.58-1.27 1.33 0 .74.56 1.28 1.27 1.28a1 1 0 0 0 .82-.37v.19q0 .11.16.12h.43q.34.02.34-.3 0-.3-.3-.3h-.04v-2.83q.01-.19-.17-.18h-.85c-.24 0-.35.07-.35.3 0 .24.11.31.35.31m-.27 2.48c-.37 0-.63-.3-.63-.72 0-.43.27-.72.63-.72.35 0 .62.3.62.72s-.26.72-.62.72m3.17-.04 1.3-1.4q.15-.15.15-.31.01-.27-.34-.28h-1.62c-.27 0-.32.03-.32.33v.35c0 .24.05.35.29.35q.27.01.27-.35v-.13h.85l-1.34 1.42a.5.5 0 0 0-.13.3q0 .27.33.28h1.7c.27 0 .33-.04.33-.34v-.4c0-.24-.06-.35-.29-.35-.2 0-.25.12-.27.34l-.02.2z"
       aria-label="pixel_sizedz"
       style="stroke-width:.794"
       transform="rotate(15)"
       id="path21" />
  </g>
</svg>
